<svg width="411" height="108" viewBox="0 0 411 108" fill="none" xmlns="http://www.w3.org/2000/svg">
<path d="M72.5931 27.22C74.3331 34.06 76.1931 40.81 78.1731 47.47C80.2131 54.07 82.4331 60.64 84.8331 67.18L76.4631 70.24C75.8031 68.56 75.1731 66.91 74.5731 65.29C74.0331 63.61 73.4631 61.93 72.8631 60.25C71.5431 60.25 70.2231 60.25 68.9031 60.25C67.6431 60.25 66.3531 60.22 65.0331 60.16L64.0431 67.36L55.1331 66.19L60.7131 25.06L69.6231 26.32L69.3531 28.03L72.5931 27.22ZM66.2031 51.16C66.8631 51.22 67.4931 51.25 68.0931 51.25C68.6931 51.25 69.3231 51.25 69.9831 51.25C69.5031 49.81 69.0531 48.37 68.6331 46.93C68.2131 45.49 67.7931 44.05 67.3731 42.61L66.2031 51.16ZM111.605 26.59C112.265 27.55 112.775 28.57 113.135 29.65C113.495 30.73 113.735 31.84 113.855 32.98C114.035 33.94 114.065 35.08 113.945 36.4C113.825 37.48 113.585 38.56 113.225 39.64C112.925 40.72 112.475 41.74 111.875 42.7C111.335 43.66 110.735 44.56 110.075 45.4C109.355 46.24 108.575 47.02 107.735 47.74L107.465 48.01L107.105 48.19L106.745 48.46L106.475 48.73C107.795 51.01 109.055 53.35 110.255 55.75C111.455 58.09 112.655 60.49 113.855 62.95L105.845 66.82C104.705 64.54 103.535 62.32 102.335 60.16C101.195 57.94 100.025 55.72 98.8252 53.5V72.13H89.8252V17.59H97.6552L98.0152 16.87L102.335 19.3L104.405 20.47C104.825 20.65 105.215 20.86 105.575 21.1C105.935 21.28 106.355 21.52 106.835 21.82C107.255 22.12 107.675 22.42 108.095 22.72C108.515 23.02 108.935 23.38 109.355 23.8C110.255 24.64 111.005 25.57 111.605 26.59ZM101.885 29.38C101.585 29.2 101.285 29.02 100.985 28.84C100.745 28.66 100.445 28.48 100.085 28.3L98.8252 27.58V42.79C99.1252 42.61 99.4252 42.43 99.7252 42.25C100.025 42.07 100.325 41.89 100.625 41.71C100.745 41.59 100.865 41.53 100.985 41.53C101.165 41.47 101.315 41.38 101.435 41.26L101.615 41.08L101.705 40.99L101.885 40.9L102.065 40.72C102.245 40.6 102.425 40.45 102.605 40.27C102.845 40.09 103.025 39.88 103.145 39.64C103.925 38.8 104.435 37.9 104.675 36.94C104.855 36.46 104.945 35.98 104.945 35.5C105.065 35.02 105.065 34.54 104.945 34.06C104.885 33.58 104.765 33.13 104.585 32.71C104.465 32.23 104.285 31.78 104.045 31.36C103.685 30.88 103.385 30.55 103.145 30.37C103.025 30.19 102.845 30.04 102.605 29.92C102.425 29.74 102.185 29.56 101.885 29.38ZM134.77 27.22C136.51 34.06 138.37 40.81 140.35 47.47C142.39 54.07 144.61 60.64 147.01 67.18L138.64 70.24C137.98 68.56 137.35 66.91 136.75 65.29C136.21 63.61 135.64 61.93 135.04 60.25C133.72 60.25 132.4 60.25 131.08 60.25C129.82 60.25 128.53 60.22 127.21 60.16L126.22 67.36L117.31 66.19L122.89 25.06L131.8 26.32L131.53 28.03L134.77 27.22ZM128.38 51.16C129.04 51.22 129.67 51.25 130.27 51.25C130.87 51.25 131.5 51.25 132.16 51.25C131.68 49.81 131.23 48.37 130.81 46.93C130.39 45.49 129.97 44.05 129.55 42.61L128.38 51.16ZM170.633 21.19H179.633V64.75H170.633V50.89C169.013 50.77 167.393 50.65 165.773 50.53C164.213 50.35 162.623 50.2 161.003 50.08V72.13H152.003V17.59H161.003V40.99C162.623 41.17 164.213 41.35 165.773 41.53C167.393 41.65 169.013 41.77 170.633 41.89V21.19ZM223.123 42.43H234.733V58.18L234.193 70.78C233.173 71.02 232.153 71.32 231.133 71.68C230.173 71.98 229.153 72.19 228.073 72.31H226.633H226.003H225.283H224.833H224.383C224.323 72.25 224.203 72.22 224.023 72.22H223.573C222.853 72.1 222.253 71.98 221.773 71.86C221.293 71.8 220.723 71.65 220.063 71.41C219.403 71.23 218.803 71.02 218.263 70.78C217.063 70.3 215.983 69.73 215.023 69.07C214.543 68.71 214.063 68.35 213.583 67.99C213.103 67.57 212.653 67.12 212.233 66.64C211.753 66.22 211.333 65.77 210.973 65.29C210.613 64.81 210.253 64.33 209.893 63.85C209.593 63.37 209.293 62.86 208.993 62.32C208.753 61.78 208.513 61.27 208.273 60.79C207.973 60.25 207.733 59.74 207.553 59.26C207.373 58.72 207.193 58.18 207.013 57.64C206.413 55.6 205.963 53.5 205.663 51.34C205.543 50.32 205.453 49.3 205.393 48.28C205.333 47.26 205.303 46.24 205.303 45.22C205.303 44.2 205.333 43.18 205.393 42.16C205.453 41.14 205.543 40.12 205.663 39.1C205.723 38.08 205.903 37.03 206.203 35.95C206.383 34.99 206.653 33.94 207.013 32.8C207.673 30.58 208.603 28.54 209.803 26.68C211.003 24.7 212.503 22.93 214.303 21.37C215.203 20.59 216.163 19.93 217.183 19.39C218.203 18.79 219.253 18.25 220.333 17.77C220.873 17.59 221.413 17.41 221.953 17.23C222.553 17.05 223.123 16.9 223.663 16.78C224.143 16.66 224.743 16.54 225.463 16.42C225.583 16.42 225.703 16.42 225.823 16.42C226.003 16.36 226.183 16.33 226.363 16.33H226.813L227.083 16.24H227.443L227.533 25.24H227.443H227.353C227.293 25.3 227.233 25.33 227.173 25.33H226.723C226.543 25.39 226.363 25.42 226.183 25.42C226.003 25.42 225.853 25.45 225.733 25.51C225.373 25.63 225.013 25.75 224.653 25.87C224.293 25.93 223.963 26.02 223.663 26.14C223.003 26.44 222.373 26.77 221.773 27.13C221.173 27.43 220.633 27.82 220.153 28.3C219.973 28.42 219.703 28.66 219.343 29.02L218.623 29.74C218.383 30.04 218.173 30.34 217.993 30.64C217.813 30.88 217.603 31.15 217.363 31.45C216.583 32.83 215.983 34.18 215.563 35.5C215.443 35.86 215.323 36.25 215.203 36.67C215.143 37.03 215.053 37.42 214.933 37.84C214.873 38.2 214.813 38.59 214.753 39.01C214.693 39.37 214.633 39.76 214.573 40.18C214.393 41.8 214.303 43.48 214.303 45.22C214.303 46.96 214.393 48.64 214.573 50.26C214.693 51.1 214.813 51.91 214.933 52.69C215.113 53.47 215.353 54.22 215.653 54.94C215.833 55.54 216.073 56.23 216.373 57.01L217.453 58.9C218.173 59.92 219.043 60.82 220.063 61.6C220.543 61.9 221.113 62.2 221.773 62.5C221.893 62.56 222.013 62.62 222.133 62.68C222.313 62.74 222.493 62.8 222.673 62.86C223.033 62.98 223.363 63.04 223.663 63.04C224.023 63.16 224.353 63.22 224.653 63.22C224.773 63.22 224.863 63.25 224.923 63.31H225.103H225.373H225.643H225.733V51.43H223.123V42.43ZM248.644 55.48C252.484 55.48 256.324 55.39 260.164 55.21L260.524 64.21C253.984 64.45 247.414 64.54 240.814 64.48V63.22H239.644V29.74H240.454L240.364 29.11C243.484 28.69 246.604 28.42 249.724 28.3C252.844 28.12 255.964 28.09 259.084 28.21L258.904 37.21C257.164 37.15 255.454 37.15 253.774 37.21C252.094 37.21 250.384 37.27 248.644 37.39V42.79H249.994L255.664 42.61L255.844 51.61L250.264 51.79H248.644V55.48ZM287.239 26.59C287.899 27.55 288.409 28.57 288.769 29.65C289.129 30.73 289.369 31.84 289.489 32.98C289.669 33.94 289.699 35.08 289.579 36.4C289.459 37.48 289.219 38.56 288.859 39.64C288.559 40.72 288.109 41.74 287.509 42.7C286.969 43.66 286.369 44.56 285.709 45.4C284.989 46.24 284.209 47.02 283.369 47.74L283.099 48.01L282.739 48.19L282.379 48.46L282.109 48.73C283.429 51.01 284.689 53.35 285.889 55.75C287.089 58.09 288.289 60.49 289.489 62.95L281.479 66.82C280.339 64.54 279.169 62.32 277.969 60.16C276.829 57.94 275.659 55.72 274.459 53.5V72.13H265.459V17.59H273.289L273.649 16.87L277.969 19.3L280.039 20.47C280.459 20.65 280.849 20.86 281.209 21.1C281.569 21.28 281.989 21.52 282.469 21.82C282.889 22.12 283.309 22.42 283.729 22.72C284.149 23.02 284.569 23.38 284.989 23.8C285.889 24.64 286.639 25.57 287.239 26.59ZM277.519 29.38C277.219 29.2 276.919 29.02 276.619 28.84C276.379 28.66 276.079 28.48 275.719 28.3L274.459 27.58V42.79C274.759 42.61 275.059 42.43 275.359 42.25C275.659 42.07 275.959 41.89 276.259 41.71C276.379 41.59 276.499 41.53 276.619 41.53C276.799 41.47 276.949 41.38 277.069 41.26L277.249 41.08L277.339 40.99L277.519 40.9L277.699 40.72C277.879 40.6 278.059 40.45 278.239 40.27C278.479 40.09 278.659 39.88 278.779 39.64C279.559 38.8 280.069 37.9 280.309 36.94C280.489 36.46 280.579 35.98 280.579 35.5C280.699 35.02 280.699 34.54 280.579 34.06C280.519 33.58 280.399 33.13 280.219 32.71C280.099 32.23 279.919 31.78 279.679 31.36C279.319 30.88 279.019 30.55 278.779 30.37C278.659 30.19 278.479 30.04 278.239 29.92C278.059 29.74 277.819 29.56 277.519 29.38ZM310.404 27.22C312.144 34.06 314.004 40.81 315.984 47.47C318.024 54.07 320.244 60.64 322.644 67.18L314.274 70.24C313.614 68.56 312.984 66.91 312.384 65.29C311.844 63.61 311.274 61.93 310.674 60.25C309.354 60.25 308.034 60.25 306.714 60.25C305.454 60.25 304.164 60.22 302.844 60.16L301.854 67.36L292.944 66.19L298.524 25.06L307.434 26.32L307.164 28.03L310.404 27.22ZM304.014 51.16C304.674 51.22 305.304 51.25 305.904 51.25C306.504 51.25 307.134 51.25 307.794 51.25C307.314 49.81 306.864 48.37 306.444 46.93C306.024 45.49 305.604 44.05 305.184 42.61L304.014 51.16ZM340.416 46.48C341.796 48.22 343.086 49.96 344.286 51.7C345.486 53.44 346.686 55.18 347.886 56.92C349.446 59.26 350.946 61.63 352.386 64.03C353.826 66.37 355.236 68.71 356.616 71.05L348.876 75.64C347.496 73.3 346.086 70.99 344.646 68.71C343.266 66.43 341.856 64.15 340.416 61.87C339.756 60.97 339.126 60.07 338.526 59.17C337.926 58.21 337.296 57.28 336.636 56.38V76.45H327.636V19.75H336.636V36.22L345.726 23.35L353.106 28.57L340.416 46.48Z" fill="#BCDB37"/>
<path d="M69.6224 23.22C71.3624 30.06 73.2224 36.81 75.2024 43.47C77.2424 50.07 79.4624 56.64 81.8624 63.18L73.4924 66.24C72.8324 64.56 72.2024 62.91 71.6024 61.29C71.0624 59.61 70.4924 57.93 69.8924 56.25C68.5724 56.25 67.2524 56.25 65.9324 56.25C64.6724 56.25 63.3824 56.22 62.0624 56.16L61.0724 63.36L52.1624 62.19L57.7424 21.06L66.6524 22.32L66.3824 24.03L69.6224 23.22ZM63.2324 47.16C63.8924 47.22 64.5224 47.25 65.1224 47.25C65.7224 47.25 66.3524 47.25 67.0124 47.25C66.5324 45.81 66.0824 44.37 65.6624 42.93C65.2424 41.49 64.8224 40.05 64.4024 38.61L63.2324 47.16ZM108.635 22.59C109.295 23.55 109.805 24.57 110.165 25.65C110.525 26.73 110.765 27.84 110.885 28.98C111.065 29.94 111.095 31.08 110.975 32.4C110.855 33.48 110.615 34.56 110.255 35.64C109.955 36.72 109.505 37.74 108.905 38.7C108.365 39.66 107.765 40.56 107.105 41.4C106.385 42.24 105.605 43.02 104.765 43.74L104.495 44.01L104.135 44.19L103.775 44.46L103.505 44.73C104.825 47.01 106.085 49.35 107.285 51.75C108.485 54.09 109.685 56.49 110.885 58.95L102.875 62.82C101.735 60.54 100.565 58.32 99.3645 56.16C98.2245 53.94 97.0545 51.72 95.8545 49.5V68.13H86.8545V13.59H94.6845L95.0445 12.87L99.3645 15.3L101.435 16.47C101.855 16.65 102.245 16.86 102.605 17.1C102.965 17.28 103.385 17.52 103.865 17.82C104.285 18.12 104.705 18.42 105.125 18.72C105.545 19.02 105.965 19.38 106.385 19.8C107.285 20.64 108.035 21.57 108.635 22.59ZM98.9145 25.38C98.6145 25.2 98.3145 25.02 98.0145 24.84C97.7745 24.66 97.4745 24.48 97.1145 24.3L95.8545 23.58V38.79C96.1545 38.61 96.4545 38.43 96.7545 38.25C97.0545 38.07 97.3545 37.89 97.6545 37.71C97.7745 37.59 97.8945 37.53 98.0145 37.53C98.1945 37.47 98.3445 37.38 98.4645 37.26L98.6445 37.08L98.7345 36.99L98.9145 36.9L99.0945 36.72C99.2745 36.6 99.4545 36.45 99.6345 36.27C99.8745 36.09 100.055 35.88 100.175 35.64C100.955 34.8 101.465 33.9 101.705 32.94C101.885 32.46 101.975 31.98 101.975 31.5C102.095 31.02 102.095 30.54 101.975 30.06C101.915 29.58 101.795 29.13 101.615 28.71C101.495 28.23 101.315 27.78 101.075 27.36C100.715 26.88 100.415 26.55 100.175 26.37C100.055 26.19 99.8745 26.04 99.6345 25.92C99.4545 25.74 99.2145 25.56 98.9145 25.38ZM131.8 23.22C133.54 30.06 135.4 36.81 137.38 43.47C139.42 50.07 141.64 56.64 144.04 63.18L135.67 66.24C135.01 64.56 134.38 62.91 133.78 61.29C133.24 59.61 132.67 57.93 132.07 56.25C130.75 56.25 129.43 56.25 128.11 56.25C126.85 56.25 125.56 56.22 124.24 56.16L123.25 63.36L114.34 62.19L119.92 21.06L128.83 22.32L128.56 24.03L131.8 23.22ZM125.41 47.16C126.07 47.22 126.7 47.25 127.3 47.25C127.9 47.25 128.53 47.25 129.19 47.25C128.71 45.81 128.26 44.37 127.84 42.93C127.42 41.49 127 40.05 126.58 38.61L125.41 47.16ZM167.662 17.19H176.662V60.75H167.662V46.89C166.042 46.77 164.422 46.65 162.802 46.53C161.242 46.35 159.652 46.2 158.032 46.08V68.13H149.032V13.59H158.032V36.99C159.652 37.17 161.242 37.35 162.802 37.53C164.422 37.65 166.042 37.77 167.662 37.89V17.19ZM220.152 38.43H231.762V54.18L231.222 66.78C230.202 67.02 229.182 67.32 228.162 67.68C227.202 67.98 226.182 68.19 225.102 68.31H223.662H223.032H222.312H221.862H221.412C221.352 68.25 221.232 68.22 221.052 68.22H220.602C219.882 68.1 219.282 67.98 218.802 67.86C218.322 67.8 217.752 67.65 217.092 67.41C216.432 67.23 215.832 67.02 215.292 66.78C214.092 66.3 213.012 65.73 212.052 65.07C211.572 64.71 211.092 64.35 210.612 63.99C210.132 63.57 209.682 63.12 209.262 62.64C208.782 62.22 208.362 61.77 208.002 61.29C207.642 60.81 207.282 60.33 206.922 59.85C206.622 59.37 206.322 58.86 206.022 58.32C205.782 57.78 205.542 57.27 205.302 56.79C205.002 56.25 204.762 55.74 204.582 55.26C204.402 54.72 204.222 54.18 204.042 53.64C203.442 51.6 202.992 49.5 202.692 47.34C202.572 46.32 202.482 45.3 202.422 44.28C202.362 43.26 202.332 42.24 202.332 41.22C202.332 40.2 202.362 39.18 202.422 38.16C202.482 37.14 202.572 36.12 202.692 35.1C202.752 34.08 202.932 33.03 203.232 31.95C203.412 30.99 203.682 29.94 204.042 28.8C204.702 26.58 205.632 24.54 206.832 22.68C208.032 20.7 209.532 18.93 211.332 17.37C212.232 16.59 213.192 15.93 214.212 15.39C215.232 14.79 216.282 14.25 217.362 13.77C217.902 13.59 218.442 13.41 218.982 13.23C219.582 13.05 220.152 12.9 220.692 12.78C221.172 12.66 221.772 12.54 222.492 12.42C222.612 12.42 222.732 12.42 222.852 12.42C223.032 12.36 223.212 12.33 223.392 12.33H223.842L224.112 12.24H224.472L224.562 21.24H224.472H224.382C224.322 21.3 224.262 21.33 224.202 21.33H223.752C223.572 21.39 223.392 21.42 223.212 21.42C223.032 21.42 222.882 21.45 222.762 21.51C222.402 21.63 222.042 21.75 221.682 21.87C221.322 21.93 220.992 22.02 220.692 22.14C220.032 22.44 219.402 22.77 218.802 23.13C218.202 23.43 217.662 23.82 217.182 24.3C217.002 24.42 216.732 24.66 216.372 25.02L215.652 25.74C215.412 26.04 215.202 26.34 215.022 26.64C214.842 26.88 214.632 27.15 214.392 27.45C213.612 28.83 213.012 30.18 212.592 31.5C212.472 31.86 212.352 32.25 212.232 32.67C212.172 33.03 212.082 33.42 211.962 33.84C211.902 34.2 211.842 34.59 211.782 35.01C211.722 35.37 211.662 35.76 211.602 36.18C211.422 37.8 211.332 39.48 211.332 41.22C211.332 42.96 211.422 44.64 211.602 46.26C211.722 47.1 211.842 47.91 211.962 48.69C212.142 49.47 212.382 50.22 212.682 50.94C212.862 51.54 213.102 52.23 213.402 53.01L214.482 54.9C215.202 55.92 216.072 56.82 217.092 57.6C217.572 57.9 218.142 58.2 218.802 58.5C218.922 58.56 219.042 58.62 219.162 58.68C219.342 58.74 219.522 58.8 219.702 58.86C220.062 58.98 220.392 59.04 220.692 59.04C221.052 59.16 221.382 59.22 221.682 59.22C221.802 59.22 221.892 59.25 221.952 59.31H222.132H222.402H222.672H222.762V47.43H220.152V38.43ZM245.673 51.48C249.513 51.48 253.353 51.39 257.193 51.21L257.553 60.21C251.013 60.45 244.443 60.54 237.843 60.48V59.22H236.673V25.74H237.483L237.393 25.11C240.513 24.69 243.633 24.42 246.753 24.3C249.873 24.12 252.993 24.09 256.113 24.21L255.933 33.21C254.193 33.15 252.483 33.15 250.803 33.21C249.123 33.21 247.413 33.27 245.673 33.39V38.79H247.023L252.693 38.61L252.873 47.61L247.293 47.79H245.673V51.48ZM284.268 22.59C284.928 23.55 285.438 24.57 285.798 25.65C286.158 26.73 286.398 27.84 286.518 28.98C286.698 29.94 286.728 31.08 286.608 32.4C286.488 33.48 286.248 34.56 285.888 35.64C285.588 36.72 285.138 37.74 284.538 38.7C283.998 39.66 283.398 40.56 282.738 41.4C282.018 42.24 281.238 43.02 280.398 43.74L280.128 44.01L279.768 44.19L279.408 44.46L279.138 44.73C280.458 47.01 281.718 49.35 282.918 51.75C284.118 54.09 285.318 56.49 286.518 58.95L278.508 62.82C277.368 60.54 276.198 58.32 274.998 56.16C273.858 53.94 272.688 51.72 271.488 49.5V68.13H262.488V13.59H270.318L270.678 12.87L274.998 15.3L277.068 16.47C277.488 16.65 277.878 16.86 278.238 17.1C278.598 17.28 279.018 17.52 279.498 17.82C279.918 18.12 280.338 18.42 280.758 18.72C281.178 19.02 281.598 19.38 282.018 19.8C282.918 20.64 283.668 21.57 284.268 22.59ZM274.548 25.38C274.248 25.2 273.948 25.02 273.648 24.84C273.408 24.66 273.108 24.48 272.748 24.3L271.488 23.58V38.79C271.788 38.61 272.088 38.43 272.388 38.25C272.688 38.07 272.988 37.89 273.288 37.71C273.408 37.59 273.528 37.53 273.648 37.53C273.828 37.47 273.978 37.38 274.098 37.26L274.278 37.08L274.368 36.99L274.548 36.9L274.728 36.72C274.908 36.6 275.088 36.45 275.268 36.27C275.508 36.09 275.688 35.88 275.808 35.64C276.588 34.8 277.098 33.9 277.338 32.94C277.518 32.46 277.608 31.98 277.608 31.5C277.728 31.02 277.728 30.54 277.608 30.06C277.548 29.58 277.428 29.13 277.248 28.71C277.128 28.23 276.948 27.78 276.708 27.36C276.348 26.88 276.048 26.55 275.808 26.37C275.688 26.19 275.508 26.04 275.268 25.92C275.088 25.74 274.848 25.56 274.548 25.38ZM307.433 23.22C309.173 30.06 311.033 36.81 313.013 43.47C315.053 50.07 317.273 56.64 319.673 63.18L311.303 66.24C310.643 64.56 310.013 62.91 309.413 61.29C308.873 59.61 308.303 57.93 307.703 56.25C306.383 56.25 305.063 56.25 303.743 56.25C302.483 56.25 301.193 56.22 299.873 56.16L298.883 63.36L289.973 62.19L295.553 21.06L304.463 22.32L304.193 24.03L307.433 23.22ZM301.043 47.16C301.703 47.22 302.333 47.25 302.933 47.25C303.533 47.25 304.163 47.25 304.823 47.25C304.343 45.81 303.893 44.37 303.473 42.93C303.053 41.49 302.633 40.05 302.213 38.61L301.043 47.16ZM337.445 42.48C338.825 44.22 340.115 45.96 341.315 47.7C342.515 49.44 343.715 51.18 344.915 52.92C346.475 55.26 347.975 57.63 349.415 60.03C350.855 62.37 352.265 64.71 353.645 67.05L345.905 71.64C344.525 69.3 343.115 66.99 341.675 64.71C340.295 62.43 338.885 60.15 337.445 57.87C336.785 56.97 336.155 56.07 335.555 55.17C334.955 54.21 334.325 53.28 333.665 52.38V72.45H324.665V15.75H333.665V32.22L342.755 19.35L350.135 24.57L337.445 42.48Z" fill="#208B71"/>
<line x1="111.616" y1="104.5" x2="301.761" y2="104.5" stroke="#BCDB37" stroke-width="3"/>
<line x1="171.036" y1="104" x2="242.34" y2="104" stroke="#208B71" stroke-width="8"/>
</svg>
