<svg width="411" height="108" viewBox="0 0 411 108" fill="none" xmlns="http://www.w3.org/2000/svg">
<path d="M60.0395 55.3V55.93V56.2V56.47V57.1C59.9795 57.46 59.9195 57.85 59.8595 58.27C59.8595 58.63 59.7995 59.02 59.6795 59.44C59.5595 59.86 59.4095 60.28 59.2295 60.7C59.1095 61.06 58.9595 61.45 58.7795 61.87C58.5995 62.23 58.3895 62.59 58.1495 62.95C57.9695 63.31 57.7595 63.67 57.5195 64.03C57.2195 64.33 56.9495 64.63 56.7095 64.93C56.4695 65.23 56.1995 65.53 55.8995 65.83C55.5995 66.13 55.2995 66.4 54.9995 66.64C54.6995 66.82 54.3995 67.03 54.0995 67.27C52.9595 67.99 51.6995 68.65 50.3195 69.25C49.0595 69.67 47.7995 70.03 46.5395 70.33C45.9395 70.51 45.3395 70.66 44.7395 70.78C44.1395 70.84 43.5095 70.9 42.8495 70.96C41.7095 71.14 40.4795 71.23 39.1595 71.23H37.3595H36.9995V72.13H27.9995V17.59H34.1195V17.41C34.4195 17.41 34.6895 17.41 34.9295 17.41C35.1695 17.41 35.4095 17.44 35.6495 17.5C36.1295 17.5 36.4595 17.53 36.6395 17.59H36.9995C37.1195 17.65 37.1795 17.68 37.1795 17.68C37.7195 17.74 38.2295 17.83 38.7095 17.95C39.2495 18.07 39.7595 18.19 40.2395 18.31C41.3795 18.61 42.3995 19 43.2995 19.48C44.1995 19.9 45.1895 20.5 46.2695 21.28C46.7495 21.64 47.1995 22.03 47.6195 22.45C48.0395 22.87 48.4295 23.32 48.7895 23.8C49.1495 24.28 49.4795 24.79 49.7795 25.33C50.0795 25.81 50.3795 26.32 50.6795 26.86L50.9495 27.67L51.1295 28.03C51.1895 28.15 51.2195 28.24 51.2195 28.3C51.2195 28.36 51.2495 28.42 51.3095 28.48C51.4295 28.84 51.4895 29.11 51.4895 29.29C51.6095 29.65 51.6695 29.92 51.6695 30.1C51.7895 30.58 51.8495 30.88 51.8495 31L51.9395 31.36V31.81C51.9995 32.11 52.0295 32.38 52.0295 32.62C52.0895 32.86 52.1195 33.1 52.1195 33.34V34.15V35.14C52.0595 35.32 52.0295 35.5 52.0295 35.68C52.0295 35.86 51.9995 36.01 51.9395 36.13C51.9395 36.25 51.9095 36.34 51.8495 36.4C51.8495 36.46 51.8495 36.55 51.8495 36.67L51.7595 37.12C51.3995 38.5 50.9195 39.67 50.3195 40.63C50.0795 40.93 49.8695 41.23 49.6895 41.53C49.5095 41.83 49.2995 42.13 49.0595 42.43C49.2995 42.49 49.6595 42.64 50.1395 42.88C50.7995 43.06 51.4295 43.33 52.0295 43.69C53.2895 44.35 54.4895 45.19 55.6295 46.21C56.2895 46.81 56.8295 47.38 57.2495 47.92C57.7295 48.52 58.1795 49.21 58.5995 49.99C58.7795 50.41 58.9295 50.8 59.0495 51.16C59.2295 51.52 59.3795 51.91 59.4995 52.33C59.6195 52.75 59.7095 53.17 59.7695 53.59C59.8295 53.95 59.8895 54.34 59.9495 54.76L60.0395 55.3ZM37.8095 26.95C37.4495 26.83 37.1795 26.77 36.9995 26.77V40.36C37.6595 40.06 38.2595 39.76 38.7995 39.46C39.3395 39.1 39.8495 38.74 40.3295 38.38C41.2895 37.66 42.0395 36.88 42.5795 36.04C42.6995 35.8 42.7895 35.59 42.8495 35.41C42.9095 35.23 42.9695 35.08 43.0295 34.96V34.78V34.69C43.0895 34.63 43.1195 34.54 43.1195 34.42V34.15V33.7C43.1195 33.58 43.0895 33.43 43.0295 33.25C43.0295 33.07 43.0295 32.92 43.0295 32.8V32.62L42.9395 32.44V31.99C42.8795 31.93 42.8495 31.81 42.8495 31.63L42.6695 31.27V31.09L42.5795 30.91C42.5795 30.79 42.5195 30.67 42.3995 30.55C42.2195 30.07 42.0095 29.68 41.7695 29.38C41.5895 29.2 41.4095 29.02 41.2295 28.84C41.1095 28.66 40.9295 28.51 40.6895 28.39C40.3295 28.09 39.8795 27.82 39.3395 27.58C38.8595 27.34 38.3495 27.13 37.8095 26.95ZM51.0395 56.2V56.02V55.84V55.57C50.9795 55.45 50.9495 55.33 50.9495 55.21C50.9495 55.03 50.9195 54.88 50.8595 54.76C50.7995 54.64 50.7395 54.55 50.6795 54.49C50.6795 54.37 50.6495 54.25 50.5895 54.13C50.4695 53.89 50.3195 53.68 50.1395 53.5C50.0195 53.26 49.8395 53.05 49.5995 52.87C49.3595 52.63 49.0895 52.42 48.7895 52.24C48.4895 52.06 48.1895 51.88 47.8895 51.7L46.8095 51.16C46.5695 51.1 46.3595 51.04 46.1795 50.98C45.9995 50.92 45.7895 50.86 45.5495 50.8C43.9895 50.26 42.1895 49.9 40.1495 49.72C39.8495 49.72 39.5495 49.72 39.2495 49.72C38.9495 49.66 38.6495 49.63 38.3495 49.63C38.2895 49.63 38.2295 49.66 38.1695 49.72C38.1695 49.72 38.1095 49.72 37.9895 49.72C37.8095 49.84 37.4795 49.96 36.9995 50.08V62.23H37.6295H39.0695C39.5495 62.23 39.9995 62.23 40.4195 62.23C40.8995 62.17 41.3795 62.11 41.8595 62.05C42.7595 61.93 43.6295 61.78 44.4695 61.6C45.3695 61.42 46.2095 61.18 46.9895 60.88C47.7095 60.58 48.3695 60.22 48.9695 59.8C49.2695 59.62 49.5095 59.44 49.6895 59.26C49.9295 59.02 50.1395 58.81 50.3195 58.63C50.6195 58.15 50.7995 57.7 50.8595 57.28C50.9795 57.04 51.0395 56.8 51.0395 56.56V56.29V56.2ZM81.8968 29.2H90.8968V63.13H81.8968V61.69L73.9768 65.83V68.26H64.9768V34.06H73.9768V55.66L81.8968 51.52V29.2ZM124.51 42.88C124.51 43.12 124.51 43.33 124.51 43.51C124.57 43.69 124.6 43.9 124.6 44.14V44.77V45.4C124.6 46.24 124.51 47.11 124.33 48.01C124.21 48.43 124.09 48.85 123.97 49.27C123.91 49.63 123.82 50.02 123.7 50.44C123.46 51.22 123.16 52 122.8 52.78C122.5 53.5 122.14 54.19 121.72 54.85C121.6 55.03 121.51 55.21 121.45 55.39C121.39 55.51 121.3 55.66 121.18 55.84C120.94 56.2 120.73 56.53 120.55 56.83C120.31 57.13 120.07 57.43 119.83 57.73C119.65 58.03 119.41 58.33 119.11 58.63C118.21 59.77 117.22 60.85 116.14 61.87C115.12 62.89 114.07 63.82 112.99 64.66C111.91 65.5 110.77 66.34 109.57 67.18C108.97 67.6 108.37 67.99 107.77 68.35C107.23 68.71 106.66 69.07 106.06 69.43C105.64 69.61 105.25 69.85 104.89 70.15V72.13H95.8897V17.59H104.89V18.4C104.95 18.4 105.01 18.43 105.07 18.49C105.19 18.55 105.28 18.61 105.34 18.67C105.46 18.67 105.58 18.7 105.7 18.76C106 18.88 106.39 19.06 106.87 19.3C107.23 19.54 107.56 19.75 107.86 19.93C108.52 20.35 109.12 20.77 109.66 21.19C110.26 21.61 110.86 22.06 111.46 22.54C112 23.02 112.54 23.5 113.08 23.98C113.62 24.4 114.13 24.85 114.61 25.33C115.15 25.81 115.66 26.32 116.14 26.86C116.62 27.4 117.1 27.94 117.58 28.48C118.06 29.02 118.51 29.59 118.93 30.19C119.35 30.73 119.77 31.33 120.19 31.99C120.61 32.59 121 33.22 121.36 33.88C121.78 34.54 122.14 35.2 122.44 35.86C123.16 37.3 123.7 38.8 124.06 40.36C124.18 40.78 124.27 41.2 124.33 41.62C124.39 41.98 124.45 42.4 124.51 42.88ZM115.6 44.77V44.5C115.6 44.2 115.57 43.99 115.51 43.87C115.51 43.57 115.45 43.12 115.33 42.52C115.21 42.04 115.06 41.59 114.88 41.17C114.76 40.69 114.58 40.21 114.34 39.73C113.86 38.77 113.32 37.84 112.72 36.94C112.12 36.04 111.46 35.17 110.74 34.33C109.96 33.49 109.15 32.65 108.31 31.81C107.53 30.97 106.69 30.22 105.79 29.56C105.55 29.32 105.25 29.08 104.89 28.84V59.44C106.81 58.12 108.49 56.77 109.93 55.39C110.77 54.55 111.52 53.74 112.18 52.96C112.9 52.12 113.5 51.25 113.98 50.35C114.22 49.87 114.43 49.45 114.61 49.09C114.85 48.67 115.03 48.22 115.15 47.74C115.21 47.5 115.27 47.29 115.33 47.11C115.39 46.87 115.42 46.63 115.42 46.39C115.48 46.15 115.51 45.94 115.51 45.76C115.57 45.58 115.6 45.37 115.6 45.13V44.77ZM144.878 27.22C146.618 34.06 148.478 40.81 150.458 47.47C152.498 54.07 154.718 60.64 157.118 67.18L148.748 70.24C148.088 68.56 147.458 66.91 146.858 65.29C146.318 63.61 145.748 61.93 145.148 60.25C143.828 60.25 142.508 60.25 141.188 60.25C139.928 60.25 138.638 60.22 137.318 60.16L136.328 67.36L127.418 66.19L132.998 25.06L141.908 26.32L141.638 28.03L144.878 27.22ZM138.488 51.16C139.148 51.22 139.778 51.25 140.378 51.25C140.978 51.25 141.608 51.25 142.268 51.25C141.788 49.81 141.338 48.37 140.918 46.93C140.498 45.49 140.078 44.05 139.658 42.61L138.488 51.16ZM170.815 47.38V70.51H161.815V50.17L159.745 49.09L161.275 46.21L151.915 21.01L160.375 17.86L166.765 35.23L174.955 19.21L182.965 23.26L170.815 47.38ZM198.442 27.22C200.182 34.06 202.042 40.81 204.022 47.47C206.062 54.07 208.282 60.64 210.682 67.18L202.312 70.24C201.652 68.56 201.022 66.91 200.422 65.29C199.882 63.61 199.312 61.93 198.712 60.25C197.392 60.25 196.072 60.25 194.752 60.25C193.492 60.25 192.202 60.22 190.882 60.16L189.892 67.36L180.982 66.19L186.562 25.06L195.472 26.32L195.202 28.03L198.442 27.22ZM192.052 51.16C192.712 51.22 193.342 51.25 193.942 51.25C194.542 51.25 195.172 51.25 195.832 51.25C195.352 49.81 194.902 48.37 194.482 46.93C194.062 45.49 193.642 44.05 193.222 42.61L192.052 51.16ZM249.172 46.48C250.552 48.22 251.842 49.96 253.042 51.7C254.242 53.44 255.442 55.18 256.642 56.92C258.202 59.26 259.702 61.63 261.142 64.03C262.582 66.37 263.992 68.71 265.372 71.05L257.632 75.64C256.252 73.3 254.842 70.99 253.402 68.71C252.022 66.43 250.612 64.15 249.172 61.87C248.512 60.97 247.882 60.07 247.282 59.17C246.682 58.21 246.052 57.28 245.392 56.38V76.45H236.392V19.75H245.392V36.22L254.482 23.35L261.862 28.57L249.172 46.48ZM274.986 55.48C278.826 55.48 282.666 55.39 286.506 55.21L286.866 64.21C280.326 64.45 273.756 64.54 267.156 64.48V63.22H265.986V29.74H266.796L266.706 29.11C269.826 28.69 272.946 28.42 276.066 28.3C279.186 28.12 282.306 28.09 285.426 28.21L285.246 37.21C283.506 37.15 281.796 37.15 280.116 37.21C278.436 37.21 276.726 37.27 274.986 37.39V42.79H276.336L282.006 42.61L282.186 51.61L276.606 51.79H274.986V55.48ZM313.581 26.59C314.241 27.55 314.751 28.57 315.111 29.65C315.471 30.73 315.711 31.84 315.831 32.98C316.011 33.94 316.041 35.08 315.921 36.4C315.801 37.48 315.561 38.56 315.201 39.64C314.901 40.72 314.451 41.74 313.851 42.7C313.311 43.66 312.711 44.56 312.051 45.4C311.331 46.24 310.551 47.02 309.711 47.74L309.441 48.01L309.081 48.19L308.721 48.46L308.451 48.73C309.771 51.01 311.031 53.35 312.231 55.75C313.431 58.09 314.631 60.49 315.831 62.95L307.821 66.82C306.681 64.54 305.511 62.32 304.311 60.16C303.171 57.94 302.001 55.72 300.801 53.5V72.13H291.801V17.59H299.631L299.991 16.87L304.311 19.3L306.381 20.47C306.801 20.65 307.191 20.86 307.551 21.1C307.911 21.28 308.331 21.52 308.811 21.82C309.231 22.12 309.651 22.42 310.071 22.72C310.491 23.02 310.911 23.38 311.331 23.8C312.231 24.64 312.981 25.57 313.581 26.59ZM303.861 29.38C303.561 29.2 303.261 29.02 302.961 28.84C302.721 28.66 302.421 28.48 302.061 28.3L300.801 27.58V42.79C301.101 42.61 301.401 42.43 301.701 42.25C302.001 42.07 302.301 41.89 302.601 41.71C302.721 41.59 302.841 41.53 302.961 41.53C303.141 41.47 303.291 41.38 303.411 41.26L303.591 41.08L303.681 40.99L303.861 40.9L304.041 40.72C304.221 40.6 304.401 40.45 304.581 40.27C304.821 40.09 305.001 39.88 305.121 39.64C305.901 38.8 306.411 37.9 306.651 36.94C306.831 36.46 306.921 35.98 306.921 35.5C307.041 35.02 307.041 34.54 306.921 34.06C306.861 33.58 306.741 33.13 306.561 32.71C306.441 32.23 306.261 31.78 306.021 31.36C305.661 30.88 305.361 30.55 305.121 30.37C305.001 30.19 304.821 30.04 304.581 29.92C304.401 29.74 304.161 29.56 303.861 29.38ZM336.194 17.95H349.964V39.64V43.96V44.5V45.13V46.21V47.38V47.92L349.874 48.46C349.874 50.02 349.784 51.58 349.604 53.14C349.424 54.58 349.154 56.14 348.794 57.82C348.614 58.66 348.404 59.47 348.164 60.25C347.924 61.03 347.654 61.84 347.354 62.68L347.174 63.22C347.114 63.4 347.024 63.61 346.904 63.85C346.844 64.03 346.754 64.24 346.634 64.48L346.274 65.11L346.094 65.38L345.914 65.65L345.644 66.28C345.524 66.4 345.434 66.52 345.374 66.64C345.374 66.7 345.314 66.79 345.194 66.91C345.134 67.03 345.074 67.12 345.014 67.18C344.954 67.24 344.894 67.33 344.834 67.45L344.384 68.08L344.114 68.35L343.844 68.62C343.664 68.86 343.334 69.22 342.854 69.7C342.614 69.94 342.404 70.12 342.224 70.24L341.954 70.51L341.684 70.69C341.564 70.81 341.444 70.9 341.324 70.96C341.264 71.02 341.174 71.08 341.054 71.14C340.934 71.26 340.814 71.35 340.694 71.41C340.634 71.41 340.544 71.47 340.424 71.59L340.244 71.68C340.124 71.74 340.064 71.77 340.064 71.77L339.704 71.95C339.464 72.13 339.224 72.25 338.984 72.31C338.864 72.37 338.744 72.43 338.624 72.49C338.504 72.55 338.384 72.61 338.264 72.67C338.144 72.73 337.904 72.82 337.544 72.94L337.184 73.03L336.824 73.12C336.704 73.18 336.464 73.27 336.104 73.39L335.384 73.48C335.324 73.54 335.204 73.57 335.024 73.57L334.664 73.66C334.544 73.66 334.424 73.69 334.304 73.75C334.184 73.75 334.064 73.75 333.944 73.75L333.224 73.84H332.954H332.594H331.874H331.784H331.694H331.424H330.884C330.764 73.84 330.674 73.84 330.614 73.84C330.554 73.78 330.494 73.75 330.434 73.75C330.314 73.75 330.224 73.75 330.164 73.75C330.104 73.69 330.014 73.66 329.894 73.66H329.624L329.354 73.57C329.294 73.51 329.234 73.48 329.174 73.48C329.114 73.48 329.024 73.45 328.904 73.39C328.784 73.33 328.634 73.3 328.454 73.3C328.274 73.24 328.124 73.18 328.004 73.12C327.344 72.82 326.774 72.52 326.294 72.22C325.814 71.86 325.364 71.5 324.944 71.14C324.464 70.72 324.044 70.33 323.684 69.97C323.384 69.55 323.084 69.1 322.784 68.62C322.484 68.2 322.214 67.78 321.974 67.36C321.794 66.94 321.584 66.49 321.344 66.01C321.164 65.53 320.984 65.08 320.804 64.66C320.684 64.24 320.564 63.79 320.444 63.31C320.024 61.63 319.814 59.83 319.814 57.91H328.814C328.814 59.11 328.934 60.16 329.174 61.06C329.474 62.14 329.834 62.98 330.254 63.58C330.614 64 330.854 64.27 330.974 64.39C331.154 64.63 331.334 64.75 331.514 64.75C331.574 64.81 331.604 64.84 331.604 64.84H331.694H331.784H332.234H332.414H332.594L332.954 64.75H333.314H333.494C333.554 64.69 333.614 64.66 333.674 64.66C333.794 64.66 333.884 64.63 333.944 64.57L334.304 64.48H334.484L334.574 64.39C334.694 64.39 334.784 64.36 334.844 64.3C334.904 64.3 334.964 64.3 335.024 64.3C335.084 64.24 335.144 64.21 335.204 64.21C335.264 64.15 335.294 64.12 335.294 64.12C335.354 64.12 335.414 64.09 335.474 64.03L335.564 63.94H335.654C335.774 63.82 335.864 63.76 335.924 63.76C336.044 63.64 336.134 63.58 336.194 63.58L336.284 63.49L336.464 63.4L336.644 63.13C336.704 63.13 336.794 63.07 336.914 62.95C336.974 62.89 337.004 62.86 337.004 62.86C337.004 62.8 337.034 62.74 337.094 62.68L337.184 62.59L337.364 62.41C337.364 62.35 337.424 62.26 337.544 62.14C337.664 62.02 337.724 61.93 337.724 61.87C337.844 61.75 337.934 61.63 337.994 61.51L338.174 61.24L338.264 61.06L338.354 60.88L338.534 60.52C338.534 60.4 338.594 60.28 338.714 60.16C338.714 60.04 338.774 59.92 338.894 59.8L338.984 59.35C339.464 58.27 339.794 57.13 339.974 55.93C340.094 55.27 340.214 54.64 340.334 54.04C340.454 53.44 340.544 52.81 340.604 52.15C340.724 51.49 340.784 50.83 340.784 50.17C340.844 49.45 340.904 48.76 340.964 48.1V47.65V47.11V46.12V45.04V44.77V44.5V43.96V39.64V26.95H336.194V17.95ZM371.439 27.22C373.179 34.06 375.039 40.81 377.019 47.47C379.059 54.07 381.279 60.64 383.679 67.18L375.309 70.24C374.649 68.56 374.019 66.91 373.419 65.29C372.879 63.61 372.309 61.93 371.709 60.25C370.389 60.25 369.069 60.25 367.749 60.25C366.489 60.25 365.199 60.22 363.879 60.16L362.889 67.36L353.979 66.19L359.559 25.06L368.469 26.32L368.199 28.03L371.439 27.22ZM365.049 51.16C365.709 51.22 366.339 51.25 366.939 51.25C367.539 51.25 368.169 51.25 368.829 51.25C368.349 49.81 367.899 48.37 367.479 46.93C367.059 45.49 366.639 44.05 366.219 42.61L365.049 51.16Z" fill="#BCDB37"/>
<path d="M57.0687 51.3V51.93V52.2V52.47V53.1C57.0087 53.46 56.9487 53.85 56.8887 54.27C56.8887 54.63 56.8287 55.02 56.7088 55.44C56.5887 55.86 56.4387 56.28 56.2587 56.7C56.1387 57.06 55.9887 57.45 55.8087 57.87C55.6287 58.23 55.4187 58.59 55.1787 58.95C54.9987 59.31 54.7887 59.67 54.5487 60.03C54.2487 60.33 53.9787 60.63 53.7387 60.93C53.4987 61.23 53.2287 61.53 52.9287 61.83C52.6287 62.13 52.3287 62.4 52.0287 62.64C51.7287 62.82 51.4287 63.03 51.1287 63.27C49.9887 63.99 48.7287 64.65 47.3487 65.25C46.0887 65.67 44.8287 66.03 43.5687 66.33C42.9687 66.51 42.3687 66.66 41.7687 66.78C41.1687 66.84 40.5387 66.9 39.8787 66.96C38.7387 67.14 37.5087 67.23 36.1887 67.23H34.3887H34.0287V68.13H25.0287V13.59H31.1487V13.41C31.4487 13.41 31.7187 13.41 31.9587 13.41C32.1987 13.41 32.4387 13.44 32.6787 13.5C33.1587 13.5 33.4887 13.53 33.6687 13.59H34.0287C34.1487 13.65 34.2087 13.68 34.2087 13.68C34.7487 13.74 35.2587 13.83 35.7387 13.95C36.2787 14.07 36.7887 14.19 37.2687 14.31C38.4087 14.61 39.4287 15 40.3287 15.48C41.2287 15.9 42.2187 16.5 43.2987 17.28C43.7787 17.64 44.2287 18.03 44.6487 18.45C45.0687 18.87 45.4587 19.32 45.8187 19.8C46.1787 20.28 46.5087 20.79 46.8087 21.33C47.1087 21.81 47.4087 22.32 47.7087 22.86L47.9787 23.67L48.1587 24.03C48.2187 24.15 48.2487 24.24 48.2487 24.3C48.2487 24.36 48.2787 24.42 48.3387 24.48C48.4587 24.84 48.5187 25.11 48.5187 25.29C48.6387 25.65 48.6987 25.92 48.6987 26.1C48.8187 26.58 48.8787 26.88 48.8787 27L48.9687 27.36V27.81C49.0287 28.11 49.0587 28.38 49.0587 28.62C49.1187 28.86 49.1487 29.1 49.1487 29.34V30.15V31.14C49.0887 31.32 49.0587 31.5 49.0587 31.68C49.0587 31.86 49.0287 32.01 48.9687 32.13C48.9687 32.25 48.9387 32.34 48.8787 32.4C48.8787 32.46 48.8787 32.55 48.8787 32.67L48.7887 33.12C48.4287 34.5 47.9487 35.67 47.3487 36.63C47.1087 36.93 46.8987 37.23 46.7187 37.53C46.5387 37.83 46.3287 38.13 46.0887 38.43C46.3287 38.49 46.6887 38.64 47.1687 38.88C47.8287 39.06 48.4587 39.33 49.0587 39.69C50.3187 40.35 51.5187 41.19 52.6587 42.21C53.3187 42.81 53.8587 43.38 54.2787 43.92C54.7587 44.52 55.2087 45.21 55.6287 45.99C55.8087 46.41 55.9587 46.8 56.0788 47.16C56.2587 47.52 56.4087 47.91 56.5287 48.33C56.6487 48.75 56.7387 49.17 56.7987 49.59C56.8587 49.95 56.9187 50.34 56.9787 50.76L57.0687 51.3ZM34.8387 22.95C34.4787 22.83 34.2087 22.77 34.0287 22.77V36.36C34.6887 36.06 35.2887 35.76 35.8287 35.46C36.3687 35.1 36.8787 34.74 37.3587 34.38C38.3187 33.66 39.0687 32.88 39.6087 32.04C39.7287 31.8 39.8187 31.59 39.8787 31.41C39.9387 31.23 39.9987 31.08 40.0587 30.96V30.78V30.69C40.1187 30.63 40.1487 30.54 40.1487 30.42V30.15V29.7C40.1487 29.58 40.1187 29.43 40.0587 29.25C40.0587 29.07 40.0587 28.92 40.0587 28.8V28.62L39.9687 28.44V27.99C39.9087 27.93 39.8787 27.81 39.8787 27.63L39.6987 27.27V27.09L39.6087 26.91C39.6087 26.79 39.5487 26.67 39.4287 26.55C39.2487 26.07 39.0387 25.68 38.7987 25.38C38.6187 25.2 38.4387 25.02 38.2587 24.84C38.1387 24.66 37.9587 24.51 37.7187 24.39C37.3587 24.09 36.9087 23.82 36.3687 23.58C35.8887 23.34 35.3787 23.13 34.8387 22.95ZM48.0687 52.2V52.02V51.84V51.57C48.0087 51.45 47.9787 51.33 47.9787 51.21C47.9787 51.03 47.9487 50.88 47.8887 50.76C47.8287 50.64 47.7687 50.55 47.7087 50.49C47.7087 50.37 47.6787 50.25 47.6187 50.13C47.4987 49.89 47.3487 49.68 47.1687 49.5C47.0487 49.26 46.8687 49.05 46.6287 48.87C46.3887 48.63 46.1187 48.42 45.8187 48.24C45.5187 48.06 45.2187 47.88 44.9187 47.7L43.8387 47.16C43.5987 47.1 43.3887 47.04 43.2087 46.98C43.0287 46.92 42.8187 46.86 42.5787 46.8C41.0187 46.26 39.2187 45.9 37.1787 45.72C36.8787 45.72 36.5787 45.72 36.2787 45.72C35.9787 45.66 35.6787 45.63 35.3787 45.63C35.3187 45.63 35.2587 45.66 35.1987 45.72C35.1987 45.72 35.1387 45.72 35.0187 45.72C34.8387 45.84 34.5087 45.96 34.0287 46.08V58.23H34.6587H36.0987C36.5787 58.23 37.0287 58.23 37.4487 58.23C37.9287 58.17 38.4087 58.11 38.8887 58.05C39.7887 57.93 40.6587 57.78 41.4987 57.6C42.3987 57.42 43.2387 57.18 44.0187 56.88C44.7387 56.58 45.3987 56.22 45.9987 55.8C46.2987 55.62 46.5387 55.44 46.7187 55.26C46.9587 55.02 47.1687 54.81 47.3487 54.63C47.6487 54.15 47.8287 53.7 47.8887 53.28C48.0087 53.04 48.0687 52.8 48.0687 52.56V52.29V52.2ZM78.9261 25.2H87.9261V59.13H78.9261V57.69L71.0061 61.83V64.26H62.0061V30.06H71.0061V51.66L78.9261 47.52V25.2ZM121.539 38.88C121.539 39.12 121.539 39.33 121.539 39.51C121.599 39.69 121.629 39.9 121.629 40.14V40.77V41.4C121.629 42.24 121.539 43.11 121.359 44.01C121.239 44.43 121.119 44.85 120.999 45.27C120.939 45.63 120.849 46.02 120.729 46.44C120.489 47.22 120.189 48 119.829 48.78C119.529 49.5 119.169 50.19 118.749 50.85C118.629 51.03 118.539 51.21 118.479 51.39C118.419 51.51 118.329 51.66 118.209 51.84C117.969 52.2 117.759 52.53 117.579 52.83C117.339 53.13 117.099 53.43 116.859 53.73C116.679 54.03 116.439 54.33 116.139 54.63C115.239 55.77 114.249 56.85 113.169 57.87C112.149 58.89 111.099 59.82 110.019 60.66C108.939 61.5 107.799 62.34 106.599 63.18C105.999 63.6 105.399 63.99 104.799 64.35C104.259 64.71 103.689 65.07 103.089 65.43C102.669 65.61 102.279 65.85 101.919 66.15V68.13H92.919V13.59H101.919V14.4C101.979 14.4 102.039 14.43 102.099 14.49C102.219 14.55 102.309 14.61 102.369 14.67C102.489 14.67 102.609 14.7 102.729 14.76C103.029 14.88 103.419 15.06 103.899 15.3C104.259 15.54 104.589 15.75 104.889 15.93C105.549 16.35 106.149 16.77 106.689 17.19C107.289 17.61 107.889 18.06 108.489 18.54C109.029 19.02 109.569 19.5 110.109 19.98C110.649 20.4 111.159 20.85 111.639 21.33C112.179 21.81 112.689 22.32 113.169 22.86C113.649 23.4 114.129 23.94 114.609 24.48C115.089 25.02 115.539 25.59 115.959 26.19C116.379 26.73 116.799 27.33 117.219 27.99C117.639 28.59 118.029 29.22 118.389 29.88C118.809 30.54 119.169 31.2 119.469 31.86C120.189 33.3 120.729 34.8 121.089 36.36C121.209 36.78 121.299 37.2 121.359 37.62C121.419 37.98 121.479 38.4 121.539 38.88ZM112.629 40.77V40.5C112.629 40.2 112.599 39.99 112.539 39.87C112.539 39.57 112.479 39.12 112.359 38.52C112.239 38.04 112.089 37.59 111.909 37.17C111.789 36.69 111.609 36.21 111.369 35.73C110.889 34.77 110.349 33.84 109.749 32.94C109.149 32.04 108.489 31.17 107.769 30.33C106.989 29.49 106.179 28.65 105.339 27.81C104.559 26.97 103.719 26.22 102.819 25.56C102.579 25.32 102.279 25.08 101.919 24.84V55.44C103.839 54.12 105.519 52.77 106.959 51.39C107.799 50.55 108.549 49.74 109.209 48.96C109.929 48.12 110.529 47.25 111.009 46.35C111.249 45.87 111.459 45.45 111.639 45.09C111.879 44.67 112.059 44.22 112.179 43.74C112.239 43.5 112.299 43.29 112.359 43.11C112.419 42.87 112.449 42.63 112.449 42.39C112.509 42.15 112.539 41.94 112.539 41.76C112.599 41.58 112.629 41.37 112.629 41.13V40.77ZM141.907 23.22C143.647 30.06 145.507 36.81 147.487 43.47C149.527 50.07 151.747 56.64 154.147 63.18L145.777 66.24C145.117 64.56 144.487 62.91 143.887 61.29C143.347 59.61 142.777 57.93 142.177 56.25C140.857 56.25 139.537 56.25 138.217 56.25C136.957 56.25 135.667 56.22 134.347 56.16L133.357 63.36L124.447 62.19L130.027 21.06L138.937 22.32L138.667 24.03L141.907 23.22ZM135.517 47.16C136.177 47.22 136.807 47.25 137.407 47.25C138.007 47.25 138.637 47.25 139.297 47.25C138.817 45.81 138.367 44.37 137.947 42.93C137.527 41.49 137.107 40.05 136.687 38.61L135.517 47.16ZM167.844 43.38V66.51H158.844V46.17L156.774 45.09L158.304 42.21L148.944 17.01L157.404 13.86L163.794 31.23L171.984 15.21L179.994 19.26L167.844 43.38ZM195.471 23.22C197.211 30.06 199.071 36.81 201.051 43.47C203.091 50.07 205.311 56.64 207.711 63.18L199.341 66.24C198.681 64.56 198.051 62.91 197.451 61.29C196.911 59.61 196.341 57.93 195.741 56.25C194.421 56.25 193.101 56.25 191.781 56.25C190.521 56.25 189.231 56.22 187.911 56.16L186.921 63.36L178.011 62.19L183.591 21.06L192.501 22.32L192.231 24.03L195.471 23.22ZM189.081 47.16C189.741 47.22 190.371 47.25 190.971 47.25C191.571 47.25 192.201 47.25 192.861 47.25C192.381 45.81 191.931 44.37 191.511 42.93C191.091 41.49 190.671 40.05 190.251 38.61L189.081 47.16ZM246.201 42.48C247.581 44.22 248.871 45.96 250.071 47.7C251.271 49.44 252.471 51.18 253.671 52.92C255.231 55.26 256.731 57.63 258.171 60.03C259.611 62.37 261.021 64.71 262.401 67.05L254.661 71.64C253.281 69.3 251.871 66.99 250.431 64.71C249.051 62.43 247.641 60.15 246.201 57.87C245.541 56.97 244.911 56.07 244.311 55.17C243.711 54.21 243.081 53.28 242.421 52.38V72.45H233.421V15.75H242.421V32.22L251.511 19.35L258.891 24.57L246.201 42.48ZM272.015 51.48C275.855 51.48 279.695 51.39 283.535 51.21L283.895 60.21C277.355 60.45 270.785 60.54 264.185 60.48V59.22H263.015V25.74H263.825L263.735 25.11C266.855 24.69 269.975 24.42 273.095 24.3C276.215 24.12 279.335 24.09 282.455 24.21L282.275 33.21C280.535 33.15 278.825 33.15 277.145 33.21C275.465 33.21 273.755 33.27 272.015 33.39V38.79H273.365L279.035 38.61L279.215 47.61L273.635 47.79H272.015V51.48ZM310.611 22.59C311.271 23.55 311.781 24.57 312.141 25.65C312.501 26.73 312.741 27.84 312.861 28.98C313.041 29.94 313.071 31.08 312.951 32.4C312.831 33.48 312.591 34.56 312.231 35.64C311.931 36.72 311.481 37.74 310.881 38.7C310.341 39.66 309.741 40.56 309.081 41.4C308.361 42.24 307.581 43.02 306.741 43.74L306.471 44.01L306.111 44.19L305.751 44.46L305.481 44.73C306.801 47.01 308.061 49.35 309.261 51.75C310.461 54.09 311.661 56.49 312.861 58.95L304.851 62.82C303.711 60.54 302.541 58.32 301.341 56.16C300.201 53.94 299.031 51.72 297.831 49.5V68.13H288.831V13.59H296.661L297.021 12.87L301.341 15.3L303.411 16.47C303.831 16.65 304.221 16.86 304.581 17.1C304.941 17.28 305.361 17.52 305.841 17.82C306.261 18.12 306.681 18.42 307.101 18.72C307.521 19.02 307.941 19.38 308.361 19.8C309.261 20.64 310.011 21.57 310.611 22.59ZM300.891 25.38C300.591 25.2 300.291 25.02 299.991 24.84C299.751 24.66 299.451 24.48 299.091 24.3L297.831 23.58V38.79C298.131 38.61 298.431 38.43 298.731 38.25C299.031 38.07 299.331 37.89 299.631 37.71C299.751 37.59 299.871 37.53 299.991 37.53C300.171 37.47 300.321 37.38 300.441 37.26L300.621 37.08L300.711 36.99L300.891 36.9L301.071 36.72C301.251 36.6 301.431 36.45 301.611 36.27C301.851 36.09 302.031 35.88 302.151 35.64C302.931 34.8 303.441 33.9 303.681 32.94C303.861 32.46 303.951 31.98 303.951 31.5C304.071 31.02 304.071 30.54 303.951 30.06C303.891 29.58 303.771 29.13 303.591 28.71C303.471 28.23 303.291 27.78 303.051 27.36C302.691 26.88 302.391 26.55 302.151 26.37C302.031 26.19 301.851 26.04 301.611 25.92C301.431 25.74 301.191 25.56 300.891 25.38ZM333.223 13.95H346.993V35.64V39.96V40.5V41.13V42.21V43.38V43.92L346.903 44.46C346.903 46.02 346.813 47.58 346.633 49.14C346.453 50.58 346.183 52.14 345.823 53.82C345.643 54.66 345.433 55.47 345.193 56.25C344.953 57.03 344.683 57.84 344.383 58.68L344.203 59.22C344.143 59.4 344.053 59.61 343.933 59.85C343.873 60.03 343.783 60.24 343.663 60.48L343.303 61.11L343.123 61.38L342.943 61.65L342.673 62.28C342.553 62.4 342.463 62.52 342.403 62.64C342.403 62.7 342.343 62.79 342.223 62.91C342.163 63.03 342.103 63.12 342.043 63.18C341.983 63.24 341.923 63.33 341.863 63.45L341.413 64.08L341.143 64.35L340.873 64.62C340.693 64.86 340.363 65.22 339.883 65.7C339.643 65.94 339.433 66.12 339.253 66.24L338.983 66.51L338.713 66.69C338.593 66.81 338.473 66.9 338.353 66.96C338.293 67.02 338.203 67.08 338.083 67.14C337.963 67.26 337.843 67.35 337.723 67.41C337.663 67.41 337.573 67.47 337.453 67.59L337.273 67.68C337.153 67.74 337.093 67.77 337.093 67.77L336.733 67.95C336.493 68.13 336.253 68.25 336.013 68.31C335.893 68.37 335.773 68.43 335.653 68.49C335.533 68.55 335.413 68.61 335.293 68.67C335.173 68.73 334.933 68.82 334.573 68.94L334.213 69.03L333.853 69.12C333.733 69.18 333.493 69.27 333.133 69.39L332.413 69.48C332.353 69.54 332.233 69.57 332.053 69.57L331.693 69.66C331.573 69.66 331.453 69.69 331.333 69.75C331.213 69.75 331.093 69.75 330.973 69.75L330.253 69.84H329.983H329.623H328.903H328.813H328.723H328.453H327.913C327.793 69.84 327.703 69.84 327.643 69.84C327.583 69.78 327.523 69.75 327.463 69.75C327.343 69.75 327.253 69.75 327.193 69.75C327.133 69.69 327.043 69.66 326.923 69.66H326.653L326.383 69.57C326.323 69.51 326.263 69.48 326.203 69.48C326.143 69.48 326.053 69.45 325.933 69.39C325.813 69.33 325.663 69.3 325.483 69.3C325.303 69.24 325.153 69.18 325.033 69.12C324.373 68.82 323.803 68.52 323.323 68.22C322.843 67.86 322.393 67.5 321.973 67.14C321.493 66.72 321.073 66.33 320.713 65.97C320.413 65.55 320.113 65.1 319.813 64.62C319.513 64.2 319.243 63.78 319.003 63.36C318.823 62.94 318.613 62.49 318.373 62.01C318.193 61.53 318.013 61.08 317.833 60.66C317.713 60.24 317.593 59.79 317.473 59.31C317.053 57.63 316.843 55.83 316.843 53.91H325.843C325.843 55.11 325.963 56.16 326.203 57.06C326.503 58.14 326.863 58.98 327.283 59.58C327.643 60 327.883 60.27 328.003 60.39C328.183 60.63 328.363 60.75 328.543 60.75C328.603 60.81 328.633 60.84 328.633 60.84H328.723H328.813H329.263H329.443H329.623L329.983 60.75H330.343H330.523C330.583 60.69 330.643 60.66 330.703 60.66C330.823 60.66 330.913 60.63 330.973 60.57L331.333 60.48H331.513L331.603 60.39C331.723 60.39 331.813 60.36 331.873 60.3C331.933 60.3 331.993 60.3 332.053 60.3C332.113 60.24 332.173 60.21 332.233 60.21C332.293 60.15 332.323 60.12 332.323 60.12C332.383 60.12 332.443 60.09 332.503 60.03L332.593 59.94H332.683C332.803 59.82 332.893 59.76 332.953 59.76C333.073 59.64 333.163 59.58 333.223 59.58L333.313 59.49L333.493 59.4L333.673 59.13C333.733 59.13 333.823 59.07 333.943 58.95C334.003 58.89 334.033 58.86 334.033 58.86C334.033 58.8 334.063 58.74 334.123 58.68L334.213 58.59L334.393 58.41C334.393 58.35 334.453 58.26 334.573 58.14C334.693 58.02 334.753 57.93 334.753 57.87C334.873 57.75 334.963 57.63 335.023 57.51L335.203 57.24L335.293 57.06L335.383 56.88L335.563 56.52C335.563 56.4 335.623 56.28 335.743 56.16C335.743 56.04 335.803 55.92 335.923 55.8L336.013 55.35C336.493 54.27 336.823 53.13 337.003 51.93C337.123 51.27 337.243 50.64 337.363 50.04C337.483 49.44 337.573 48.81 337.633 48.15C337.753 47.49 337.813 46.83 337.813 46.17C337.873 45.45 337.933 44.76 337.993 44.1V43.65V43.11V42.12V41.04V40.77V40.5V39.96V35.64V22.95H333.223V13.95ZM368.468 23.22C370.208 30.06 372.068 36.81 374.048 43.47C376.088 50.07 378.308 56.64 380.708 63.18L372.338 66.24C371.678 64.56 371.048 62.91 370.448 61.29C369.908 59.61 369.338 57.93 368.738 56.25C367.418 56.25 366.098 56.25 364.778 56.25C363.518 56.25 362.228 56.22 360.908 56.16L359.918 63.36L351.008 62.19L356.588 21.06L365.498 22.32L365.228 24.03L368.468 23.22ZM362.078 47.16C362.738 47.22 363.368 47.25 363.968 47.25C364.568 47.25 365.198 47.25 365.858 47.25C365.378 45.81 364.928 44.37 364.508 42.93C364.088 41.49 363.668 40.05 363.248 38.61L362.078 47.16Z" fill="#208B71"/>
<line x1="111.616" y1="104.5" x2="301.761" y2="104.5" stroke="#BCDB37" stroke-width="3"/>
<line x1="171.036" y1="104" x2="242.34" y2="104" stroke="#208B71" stroke-width="8"/>
</svg>
