<svg width="718" height="128" viewBox="0 0 718 128" fill="none" xmlns="http://www.w3.org/2000/svg">
<path d="M176.303 42.2444H184.003V53.2444H176.303V88.0044H165.303V21.3444H169.153V19.8044C173.48 19.6577 177.77 19.621 182.023 19.6944C186.35 19.7677 190.713 19.951 195.113 20.2444L194.453 31.2444C191.373 31.0977 188.33 30.9877 185.323 30.9144C182.39 30.7677 179.383 30.6944 176.303 30.6944V42.2444ZM201.152 25.7444H212.152V85.1444H201.152V25.7444ZM244.602 90.3144C242.035 90.3877 239.468 90.4977 236.902 90.6444C234.335 90.791 231.768 91.0477 229.202 91.4144V95.4844H218.202V23.9844H229.202V80.4144C231.695 80.0477 234.188 79.791 236.682 79.6444C239.175 79.4977 241.705 79.3877 244.272 79.3144L244.602 90.3144ZM270.245 58.3044L252.535 80.8544L234.715 61.6044L249.675 36.5244L259.135 42.2444L257.485 44.8844L270.245 58.3044ZM251.655 54.7844L248.355 60.1744L252.425 64.6844L255.945 59.5144L251.655 54.7844ZM295.907 63.9144V64.1344V65.2344C295.907 65.6744 295.871 66.0044 295.797 66.2244C295.577 67.7644 295.101 69.0844 294.367 70.1844C294.221 70.331 294.111 70.4777 294.037 70.6244C293.964 70.6977 293.927 70.771 293.927 70.8444L293.817 70.9544C293.744 71.101 293.634 71.2477 293.487 71.3944C293.341 71.541 293.267 71.651 293.267 71.7244C292.754 72.2377 292.351 72.6044 292.057 72.8244C291.691 73.191 291.324 73.521 290.957 73.8144C290.591 74.1077 290.224 74.401 289.857 74.6944C289.564 74.9144 289.197 75.171 288.757 75.4644C288.537 75.611 288.317 75.721 288.097 75.7944C287.951 75.8677 287.767 75.9777 287.547 76.1244C286.154 76.931 284.614 77.6277 282.927 78.2144C281.461 78.7277 279.847 79.1677 278.087 79.5344C277.281 79.681 276.437 79.8277 275.557 79.9744C274.751 80.0477 273.871 80.0844 272.917 80.0844V69.0844C273.871 69.0844 274.897 68.9744 275.997 68.7544C276.584 68.6077 277.134 68.461 277.647 68.3144C278.161 68.1677 278.711 68.021 279.297 67.8744L282.267 66.5544C282.414 66.4077 282.634 66.261 282.927 66.1144C283.221 65.9677 283.404 65.821 283.477 65.6744C283.697 65.5277 283.881 65.4177 284.027 65.3444C284.174 65.1977 284.321 65.051 284.467 64.9044C284.614 64.831 284.687 64.7944 284.687 64.7944C284.687 64.721 284.724 64.6477 284.797 64.5744C284.871 64.5744 284.907 64.5377 284.907 64.4644V64.3544V64.2444V64.0244C284.834 63.8777 284.797 63.731 284.797 63.5844C284.797 63.3644 284.761 63.181 284.687 63.0344C284.614 62.8877 284.541 62.7777 284.467 62.7044C284.467 62.5577 284.394 62.411 284.247 62.2644C284.101 61.8977 283.881 61.6044 283.587 61.3844C283.074 60.7977 282.341 60.1377 281.387 59.4044C280.874 59.0377 280.324 58.671 279.737 58.3044C279.224 57.9377 278.674 57.571 278.087 57.2044L276.107 55.8844C275.741 55.6644 275.411 55.4444 275.117 55.2244C274.824 54.931 274.494 54.6377 274.127 54.3444C273.761 53.9777 273.394 53.6477 273.027 53.3544C272.734 52.9877 272.404 52.5844 272.037 52.1444C271.671 51.7777 271.341 51.3744 271.047 50.9344C270.754 50.4944 270.461 49.981 270.167 49.3944C269.581 48.1477 269.177 47.011 268.957 45.9844V45.5444C268.884 45.471 268.847 45.3244 268.847 45.1044V44.6644L268.737 44.3344V43.4544V43.0144V42.4644C268.884 41.8777 268.994 41.2177 269.067 40.4844C269.214 39.751 269.434 39.1277 269.727 38.6144C269.874 38.2477 270.021 37.9177 270.167 37.6244C270.387 37.331 270.571 37.0377 270.717 36.7444C270.937 36.451 271.157 36.1944 271.377 35.9744C271.597 35.7544 271.817 35.5344 272.037 35.3144C272.991 34.361 273.871 33.6277 274.677 33.1144C274.897 32.9677 275.117 32.8577 275.337 32.7844C275.631 32.6377 275.887 32.491 276.107 32.3444C276.327 32.1977 276.547 32.1244 276.767 32.1244C276.987 32.051 277.207 31.941 277.427 31.7944C279.041 31.2077 280.727 30.731 282.487 30.3644C282.927 30.291 283.367 30.2544 283.807 30.2544C284.247 30.181 284.651 30.1077 285.017 30.0344C285.604 30.0344 286.007 29.9977 286.227 29.9244H286.887H287.217H287.437H287.657V40.9244H287.327H286.887C286.741 40.9244 286.594 40.961 286.447 41.0344C286.374 41.0344 286.264 41.0344 286.117 41.0344C285.604 41.0344 285.054 41.1077 284.467 41.2544C283.881 41.401 283.331 41.5477 282.817 41.6944C282.304 41.7677 281.864 41.8777 281.497 42.0244C281.204 42.171 281.021 42.2444 280.947 42.2444C280.801 42.3177 280.691 42.391 280.617 42.4644C280.617 42.4644 280.544 42.501 280.397 42.5744C280.251 42.6477 280.067 42.7944 279.847 43.0144C279.774 43.0877 279.737 43.1244 279.737 43.1244V43.2344V43.3444V43.5644V43.6744V43.7844V43.8944C279.811 44.041 279.847 44.151 279.847 44.2244C279.847 44.2244 279.884 44.2977 279.957 44.4444C280.104 44.7377 280.251 44.9577 280.397 45.1044L281.277 45.9844C281.497 46.131 281.681 46.3144 281.827 46.5344C282.047 46.681 282.304 46.8277 282.597 46.9744C282.817 47.121 283.037 47.3044 283.257 47.5244C283.551 47.671 283.844 47.8177 284.137 47.9644C284.724 48.331 285.311 48.7344 285.897 49.1744C286.484 49.541 287.107 49.981 287.767 50.4944C288.134 50.7144 288.464 50.971 288.757 51.2644C289.051 51.4844 289.381 51.741 289.747 52.0344C290.407 52.5477 291.104 53.2077 291.837 54.0144C292.204 54.381 292.497 54.7844 292.717 55.2244C293.011 55.591 293.341 55.9944 293.707 56.4344C294.294 57.3877 294.734 58.3777 295.027 59.4044C295.394 60.2844 295.651 61.3477 295.797 62.5944C295.797 62.741 295.797 62.8877 295.797 63.0344C295.871 63.1077 295.907 63.2177 295.907 63.3644V63.6944V63.9144ZM337.538 58.3044L319.828 80.8544L302.008 61.6044L316.968 36.5244L326.428 42.2444L324.778 44.8844L337.538 58.3044ZM318.948 54.7844L315.648 60.1744L319.718 64.6844L323.238 59.5144L318.948 54.7844ZM354.55 42.2444H362.25V53.2444H354.55V88.0044H343.55V21.3444H347.4V19.8044C351.727 19.6577 356.017 19.621 360.27 19.6944C364.597 19.7677 368.96 19.951 373.36 20.2444L372.7 31.2444C369.62 31.0977 366.577 30.9877 363.57 30.9144C360.637 30.7677 357.63 30.6944 354.55 30.6944V42.2444ZM379.399 25.7444H390.399V85.1444H379.399V25.7444ZM448.171 90.3144C445.604 90.3877 443.037 90.4977 440.471 90.6444C437.904 90.791 435.337 91.0477 432.771 91.4144V95.4844H421.771V23.9844H432.771V80.4144C435.264 80.0477 437.757 79.791 440.251 79.6444C442.744 79.4977 445.274 79.3877 447.841 79.3144L448.171 90.3144ZM473.813 58.3044L456.103 80.8544L438.283 61.6044L453.243 36.5244L462.703 42.2444L461.053 44.8844L473.813 58.3044ZM455.223 54.7844L451.923 60.1744L455.993 64.6844L459.513 59.5144L455.223 54.7844ZM500.424 51.7044H514.614V70.9544L513.954 86.3544C512.707 86.6477 511.461 87.0144 510.214 87.4544C509.041 87.821 507.794 88.0777 506.474 88.2244H504.714H503.944H503.064H502.514H501.964C501.891 88.151 501.744 88.1144 501.524 88.1144H500.974C500.094 87.9677 499.361 87.821 498.774 87.6744C498.187 87.601 497.491 87.4177 496.684 87.1244C495.877 86.9044 495.144 86.6477 494.484 86.3544C493.017 85.7677 491.697 85.071 490.524 84.2644C489.937 83.8244 489.351 83.3844 488.764 82.9444C488.177 82.431 487.627 81.881 487.114 81.2944C486.527 80.781 486.014 80.231 485.574 79.6444C485.134 79.0577 484.694 78.471 484.254 77.8844C483.887 77.2977 483.521 76.6744 483.154 76.0144C482.861 75.3544 482.567 74.731 482.274 74.1444C481.907 73.4844 481.614 72.861 481.394 72.2744C481.174 71.6144 480.954 70.9544 480.734 70.2944C480.001 67.801 479.451 65.2344 479.084 62.5944C478.937 61.3477 478.827 60.101 478.754 58.8544C478.681 57.6077 478.644 56.361 478.644 55.1144C478.644 53.8677 478.681 52.621 478.754 51.3744C478.827 50.1277 478.937 48.881 479.084 47.6344C479.157 46.3877 479.377 45.1044 479.744 43.7844C479.964 42.611 480.294 41.3277 480.734 39.9344C481.541 37.221 482.677 34.7277 484.144 32.4544C485.611 30.0344 487.444 27.871 489.644 25.9644C490.744 25.011 491.917 24.2044 493.164 23.5444C494.411 22.811 495.694 22.151 497.014 21.5644C497.674 21.3444 498.334 21.1244 498.994 20.9044C499.727 20.6844 500.424 20.501 501.084 20.3544C501.671 20.2077 502.404 20.061 503.284 19.9144C503.431 19.9144 503.577 19.9144 503.724 19.9144C503.944 19.841 504.164 19.8044 504.384 19.8044H504.934L505.264 19.6944H505.704L505.814 30.6944H505.704H505.594C505.521 30.7677 505.447 30.8044 505.374 30.8044H504.824C504.604 30.8777 504.384 30.9144 504.164 30.9144C503.944 30.9144 503.761 30.951 503.614 31.0244C503.174 31.171 502.734 31.3177 502.294 31.4644C501.854 31.5377 501.451 31.6477 501.084 31.7944C500.277 32.161 499.507 32.5644 498.774 33.0044C498.041 33.371 497.381 33.8477 496.794 34.4344C496.574 34.581 496.244 34.8744 495.804 35.3144L494.924 36.1944C494.631 36.561 494.374 36.9277 494.154 37.2944C493.934 37.5877 493.677 37.9177 493.384 38.2844C492.431 39.971 491.697 41.621 491.184 43.2344C491.037 43.6744 490.891 44.151 490.744 44.6644C490.671 45.1044 490.561 45.581 490.414 46.0944C490.341 46.5344 490.267 47.011 490.194 47.5244C490.121 47.9644 490.047 48.441 489.974 48.9544C489.754 50.9344 489.644 52.9877 489.644 55.1144C489.644 57.241 489.754 59.2944 489.974 61.2744C490.121 62.301 490.267 63.291 490.414 64.2444C490.634 65.1977 490.927 66.1144 491.294 66.9944C491.514 67.7277 491.807 68.571 492.174 69.5244L493.494 71.8344C494.374 73.081 495.437 74.181 496.684 75.1344C497.271 75.501 497.967 75.8677 498.774 76.2344C498.921 76.3077 499.067 76.381 499.214 76.4544C499.434 76.5277 499.654 76.601 499.874 76.6744C500.314 76.821 500.717 76.8944 501.084 76.8944C501.524 77.041 501.927 77.1144 502.294 77.1144C502.441 77.1144 502.551 77.151 502.624 77.2244H502.844H503.174H503.504H503.614V62.7044H500.424V51.7044ZM555.179 58.3044L537.469 80.8544L519.649 61.6044L534.609 36.5244L544.069 42.2444L542.419 44.8844L555.179 58.3044ZM536.589 54.7844L533.289 60.1744L537.359 64.6844L540.879 59.5144L536.589 54.7844Z" fill="#FE7201"/>
<path d="M171.109 38.2483H178.809V49.2483H171.109V84.0083H160.109V17.3483H163.959V15.8083C168.285 15.6616 172.575 15.6249 176.829 15.6983C181.155 15.7716 185.519 15.9549 189.919 16.2483L189.259 27.2483C186.179 27.1016 183.135 26.9916 180.129 26.9183C177.195 26.7716 174.189 26.6983 171.109 26.6983V38.2483ZM195.957 21.7483H206.957V81.1483H195.957V21.7483ZM239.407 86.3183C236.841 86.3916 234.274 86.5016 231.707 86.6483C229.141 86.7949 226.574 87.0516 224.007 87.4183V91.4883H213.007V19.9883H224.007V76.4183C226.501 76.0516 228.994 75.7949 231.487 75.6483C233.981 75.5016 236.511 75.3916 239.077 75.3183L239.407 86.3183ZM265.05 54.3083L247.34 76.8583L229.52 57.6083L244.48 32.5283L253.94 38.2483L252.29 40.8883L265.05 54.3083ZM246.46 50.7883L243.16 56.1783L247.23 60.6883L250.75 55.5183L246.46 50.7883ZM290.713 59.9183V60.1383V61.2383C290.713 61.6783 290.676 62.0083 290.603 62.2283C290.383 63.7683 289.906 65.0883 289.173 66.1883C289.026 66.3349 288.916 66.4816 288.843 66.6283C288.77 66.7016 288.733 66.7749 288.733 66.8483L288.623 66.9583C288.55 67.1049 288.44 67.2516 288.293 67.3983C288.146 67.5449 288.073 67.6549 288.073 67.7283C287.56 68.2416 287.156 68.6083 286.863 68.8283C286.496 69.1949 286.13 69.5249 285.763 69.8183C285.396 70.1116 285.03 70.4049 284.663 70.6983C284.37 70.9183 284.003 71.1749 283.563 71.4683C283.343 71.6149 283.123 71.7249 282.903 71.7983C282.756 71.8716 282.573 71.9816 282.353 72.1283C280.96 72.9349 279.42 73.6316 277.733 74.2183C276.266 74.7316 274.653 75.1716 272.893 75.5383C272.086 75.6849 271.243 75.8316 270.363 75.9783C269.556 76.0516 268.676 76.0883 267.723 76.0883V65.0883C268.676 65.0883 269.703 64.9783 270.803 64.7583C271.39 64.6116 271.94 64.4649 272.453 64.3183C272.966 64.1716 273.516 64.0249 274.103 63.8783L277.073 62.5583C277.22 62.4116 277.44 62.2649 277.733 62.1183C278.026 61.9716 278.21 61.8249 278.283 61.6783C278.503 61.5316 278.686 61.4216 278.833 61.3483C278.98 61.2016 279.126 61.0549 279.273 60.9083C279.42 60.8349 279.493 60.7983 279.493 60.7983C279.493 60.7249 279.53 60.6516 279.603 60.5783C279.676 60.5783 279.713 60.5416 279.713 60.4683V60.3583V60.2483V60.0283C279.64 59.8816 279.603 59.7349 279.603 59.5883C279.603 59.3683 279.566 59.1849 279.493 59.0383C279.42 58.8916 279.346 58.7816 279.273 58.7083C279.273 58.5616 279.2 58.4149 279.053 58.2683C278.906 57.9016 278.686 57.6083 278.393 57.3883C277.88 56.8016 277.146 56.1416 276.193 55.4083C275.68 55.0416 275.13 54.6749 274.543 54.3083C274.03 53.9416 273.48 53.5749 272.893 53.2083L270.913 51.8883C270.546 51.6683 270.216 51.4483 269.923 51.2283C269.63 50.9349 269.3 50.6416 268.933 50.3483C268.566 49.9816 268.2 49.6516 267.833 49.3583C267.54 48.9916 267.21 48.5883 266.843 48.1483C266.476 47.7816 266.146 47.3783 265.853 46.9383C265.56 46.4983 265.266 45.9849 264.973 45.3983C264.386 44.1516 263.983 43.0149 263.763 41.9883V41.5483C263.69 41.4749 263.653 41.3283 263.653 41.1083V40.6683L263.543 40.3383V39.4583V39.0183V38.4683C263.69 37.8816 263.8 37.2216 263.873 36.4883C264.02 35.7549 264.24 35.1316 264.533 34.6183C264.68 34.2516 264.826 33.9216 264.973 33.6283C265.193 33.3349 265.376 33.0416 265.523 32.7483C265.743 32.4549 265.963 32.1983 266.183 31.9783C266.403 31.7583 266.623 31.5383 266.843 31.3183C267.796 30.3649 268.676 29.6316 269.483 29.1183C269.703 28.9716 269.923 28.8616 270.143 28.7883C270.436 28.6416 270.693 28.4949 270.913 28.3483C271.133 28.2016 271.353 28.1283 271.573 28.1283C271.793 28.0549 272.013 27.9449 272.233 27.7983C273.846 27.2116 275.533 26.7349 277.293 26.3683C277.733 26.2949 278.173 26.2583 278.613 26.2583C279.053 26.1849 279.456 26.1116 279.823 26.0383C280.41 26.0383 280.813 26.0016 281.033 25.9283H281.693H282.023H282.243H282.463V36.9283H282.133H281.693C281.546 36.9283 281.4 36.9649 281.253 37.0383C281.18 37.0383 281.07 37.0383 280.923 37.0383C280.41 37.0383 279.86 37.1116 279.273 37.2583C278.686 37.4049 278.136 37.5516 277.623 37.6983C277.11 37.7716 276.67 37.8816 276.303 38.0283C276.01 38.1749 275.826 38.2483 275.753 38.2483C275.606 38.3216 275.496 38.3949 275.423 38.4683C275.423 38.4683 275.35 38.5049 275.203 38.5783C275.056 38.6516 274.873 38.7983 274.653 39.0183C274.58 39.0916 274.543 39.1283 274.543 39.1283V39.2383V39.3483V39.5683V39.6783V39.7883V39.8983C274.616 40.0449 274.653 40.1549 274.653 40.2283C274.653 40.2283 274.69 40.3016 274.763 40.4483C274.91 40.7416 275.056 40.9616 275.203 41.1083L276.083 41.9883C276.303 42.1349 276.486 42.3183 276.633 42.5383C276.853 42.6849 277.11 42.8316 277.403 42.9783C277.623 43.1249 277.843 43.3083 278.063 43.5283C278.356 43.6749 278.65 43.8216 278.943 43.9683C279.53 44.3349 280.116 44.7383 280.703 45.1783C281.29 45.5449 281.913 45.9849 282.573 46.4983C282.94 46.7183 283.27 46.9749 283.563 47.2683C283.856 47.4883 284.186 47.7449 284.553 48.0383C285.213 48.5516 285.91 49.2116 286.643 50.0183C287.01 50.3849 287.303 50.7883 287.523 51.2283C287.816 51.5949 288.146 51.9983 288.513 52.4383C289.1 53.3916 289.54 54.3816 289.833 55.4083C290.2 56.2883 290.456 57.3516 290.603 58.5983C290.603 58.7449 290.603 58.8916 290.603 59.0383C290.676 59.1116 290.713 59.2216 290.713 59.3683V59.6983V59.9183ZM332.344 54.3083L314.634 76.8583L296.814 57.6083L311.774 32.5283L321.234 38.2483L319.584 40.8883L332.344 54.3083ZM313.754 50.7883L310.454 56.1783L314.524 60.6883L318.044 55.5183L313.754 50.7883ZM349.356 38.2483H357.056V49.2483H349.356V84.0083H338.356V17.3483H342.206V15.8083C346.533 15.6616 350.823 15.6249 355.076 15.6983C359.403 15.7716 363.766 15.9549 368.166 16.2483L367.506 27.2483C364.426 27.1016 361.383 26.9916 358.376 26.9183C355.443 26.7716 352.436 26.6983 349.356 26.6983V38.2483ZM374.205 21.7483H385.205V81.1483H374.205V21.7483ZM442.976 86.3183C440.41 86.3916 437.843 86.5016 435.276 86.6483C432.71 86.7949 430.143 87.0516 427.576 87.4183V91.4883H416.576V19.9883H427.576V76.4183C430.07 76.0516 432.563 75.7949 435.056 75.6483C437.55 75.5016 440.08 75.3916 442.646 75.3183L442.976 86.3183ZM468.619 54.3083L450.909 76.8583L433.089 57.6083L448.049 32.5283L457.509 38.2483L455.859 40.8883L468.619 54.3083ZM450.029 50.7883L446.729 56.1783L450.799 60.6883L454.319 55.5183L450.029 50.7883ZM495.23 47.7083H509.42V66.9583L508.76 82.3583C507.513 82.6516 506.266 83.0183 505.02 83.4583C503.846 83.8249 502.6 84.0816 501.28 84.2283H499.52H498.75H497.87H497.32H496.77C496.696 84.1549 496.55 84.1183 496.33 84.1183H495.78C494.9 83.9716 494.166 83.8249 493.58 83.6783C492.993 83.6049 492.296 83.4216 491.49 83.1283C490.683 82.9083 489.95 82.6516 489.29 82.3583C487.823 81.7716 486.503 81.0749 485.33 80.2683C484.743 79.8283 484.156 79.3883 483.57 78.9483C482.983 78.4349 482.433 77.8849 481.92 77.2983C481.333 76.7849 480.82 76.2349 480.38 75.6483C479.94 75.0616 479.5 74.4749 479.06 73.8883C478.693 73.3016 478.326 72.6783 477.96 72.0183C477.666 71.3583 477.373 70.7349 477.08 70.1483C476.713 69.4883 476.42 68.8649 476.2 68.2783C475.98 67.6183 475.76 66.9583 475.54 66.2983C474.806 63.8049 474.256 61.2383 473.89 58.5983C473.743 57.3516 473.633 56.1049 473.56 54.8583C473.486 53.6116 473.45 52.3649 473.45 51.1183C473.45 49.8716 473.486 48.6249 473.56 47.3783C473.633 46.1316 473.743 44.8849 473.89 43.6383C473.963 42.3916 474.183 41.1083 474.55 39.7883C474.77 38.6149 475.1 37.3316 475.54 35.9383C476.346 33.2249 477.483 30.7316 478.95 28.4583C480.416 26.0383 482.25 23.8749 484.45 21.9683C485.55 21.0149 486.723 20.2083 487.97 19.5483C489.216 18.8149 490.5 18.1549 491.82 17.5683C492.48 17.3483 493.14 17.1283 493.8 16.9083C494.533 16.6883 495.23 16.5049 495.89 16.3583C496.476 16.2116 497.21 16.0649 498.09 15.9183C498.236 15.9183 498.383 15.9183 498.53 15.9183C498.75 15.8449 498.97 15.8083 499.19 15.8083H499.74L500.07 15.6983H500.51L500.62 26.6983H500.51H500.4C500.326 26.7716 500.253 26.8083 500.18 26.8083H499.63C499.41 26.8816 499.19 26.9183 498.97 26.9183C498.75 26.9183 498.566 26.9549 498.42 27.0283C497.98 27.1749 497.54 27.3216 497.1 27.4683C496.66 27.5416 496.256 27.6516 495.89 27.7983C495.083 28.1649 494.313 28.5683 493.58 29.0083C492.846 29.3749 492.186 29.8516 491.6 30.4383C491.38 30.5849 491.05 30.8783 490.61 31.3183L489.73 32.1983C489.436 32.5649 489.18 32.9316 488.96 33.2983C488.74 33.5916 488.483 33.9216 488.19 34.2883C487.236 35.9749 486.503 37.6249 485.99 39.2383C485.843 39.6783 485.696 40.1549 485.55 40.6683C485.476 41.1083 485.366 41.5849 485.22 42.0983C485.146 42.5383 485.073 43.0149 485 43.5283C484.926 43.9683 484.853 44.4449 484.78 44.9583C484.56 46.9383 484.45 48.9916 484.45 51.1183C484.45 53.2449 484.56 55.2983 484.78 57.2783C484.926 58.3049 485.073 59.2949 485.22 60.2483C485.44 61.2016 485.733 62.1183 486.1 62.9983C486.32 63.7316 486.613 64.5749 486.98 65.5283L488.3 67.8383C489.18 69.0849 490.243 70.1849 491.49 71.1383C492.076 71.5049 492.773 71.8716 493.58 72.2383C493.726 72.3116 493.873 72.3849 494.02 72.4583C494.24 72.5316 494.46 72.6049 494.68 72.6783C495.12 72.8249 495.523 72.8983 495.89 72.8983C496.33 73.0449 496.733 73.1183 497.1 73.1183C497.246 73.1183 497.356 73.1549 497.43 73.2283H497.65H497.98H498.31H498.42V58.7083H495.23V47.7083ZM549.985 54.3083L532.275 76.8583L514.455 57.6083L529.415 32.5283L538.875 38.2483L537.225 40.8883L549.985 54.3083ZM531.395 50.7883L528.095 56.1783L532.165 60.6883L535.685 55.5183L531.395 50.7883Z" fill="#BCDB37"/>
<line x1="194.844" y1="124.105" x2="527.311" y2="124.105" stroke="#FE7201" stroke-width="3"/>
<line x1="298.74" y1="123.602" x2="423.416" y2="123.602" stroke="#BCDB37" stroke-width="8"/>
</svg>
