<svg width="690" height="108" viewBox="0 0 690 108" fill="none" xmlns="http://www.w3.org/2000/svg">
<path d="M162.861 34.69H169.161V43.69H162.861V72.13H153.861V17.59H157.011V16.33C160.551 16.21 164.061 16.18 167.541 16.24C171.081 16.3 174.651 16.45 178.251 16.69L177.711 25.69C175.191 25.57 172.701 25.48 170.241 25.42C167.841 25.3 165.381 25.24 162.861 25.24V34.69ZM183.192 21.19H192.192V69.79H183.192V21.19ZM218.742 74.02C216.642 74.08 214.542 74.17 212.442 74.29C210.342 74.41 208.242 74.62 206.142 74.92V78.25H197.142V19.75H206.142V65.92C208.182 65.62 210.222 65.41 212.262 65.29C214.302 65.17 216.372 65.08 218.472 65.02L218.742 74.02ZM239.723 47.83L225.233 66.28L210.653 50.53L222.893 30.01L230.633 34.69L229.283 36.85L239.723 47.83ZM224.513 44.95L221.813 49.36L225.143 53.05L228.023 48.82L224.513 44.95ZM260.719 52.42V52.6V53.5C260.719 53.86 260.689 54.13 260.629 54.31C260.449 55.57 260.059 56.65 259.459 57.55C259.339 57.67 259.249 57.79 259.189 57.91C259.129 57.97 259.099 58.03 259.099 58.09L259.009 58.18C258.949 58.3 258.859 58.42 258.739 58.54C258.619 58.66 258.559 58.75 258.559 58.81C258.139 59.23 257.809 59.53 257.569 59.71C257.269 60.01 256.969 60.28 256.669 60.52C256.369 60.76 256.069 61 255.769 61.24C255.529 61.42 255.229 61.63 254.869 61.87C254.689 61.99 254.509 62.08 254.329 62.14C254.209 62.2 254.059 62.29 253.879 62.41C252.739 63.07 251.479 63.64 250.099 64.12C248.899 64.54 247.579 64.9 246.139 65.2C245.479 65.32 244.789 65.44 244.069 65.56C243.409 65.62 242.689 65.65 241.909 65.65V56.65C242.689 56.65 243.529 56.56 244.429 56.38C244.909 56.26 245.359 56.14 245.779 56.02C246.199 55.9 246.649 55.78 247.129 55.66L249.559 54.58C249.679 54.46 249.859 54.34 250.099 54.22C250.339 54.1 250.489 53.98 250.549 53.86C250.729 53.74 250.879 53.65 250.999 53.59C251.119 53.47 251.239 53.35 251.359 53.23C251.479 53.17 251.539 53.14 251.539 53.14C251.539 53.08 251.569 53.02 251.629 52.96C251.689 52.96 251.719 52.93 251.719 52.87V52.78V52.69V52.51C251.659 52.39 251.629 52.27 251.629 52.15C251.629 51.97 251.599 51.82 251.539 51.7C251.479 51.58 251.419 51.49 251.359 51.43C251.359 51.31 251.299 51.19 251.179 51.07C251.059 50.77 250.879 50.53 250.639 50.35C250.219 49.87 249.619 49.33 248.839 48.73C248.419 48.43 247.969 48.13 247.489 47.83C247.069 47.53 246.619 47.23 246.139 46.93L244.519 45.85C244.219 45.67 243.949 45.49 243.709 45.31C243.469 45.07 243.199 44.83 242.899 44.59C242.599 44.29 242.299 44.02 241.999 43.78C241.759 43.48 241.489 43.15 241.189 42.79C240.889 42.49 240.619 42.16 240.379 41.8C240.139 41.44 239.899 41.02 239.659 40.54C239.179 39.52 238.849 38.59 238.669 37.75V37.39C238.609 37.33 238.579 37.21 238.579 37.03V36.67L238.489 36.4V35.68V35.32V34.87C238.609 34.39 238.699 33.85 238.759 33.25C238.879 32.65 239.059 32.14 239.299 31.72C239.419 31.42 239.539 31.15 239.659 30.91C239.839 30.67 239.989 30.43 240.109 30.19C240.289 29.95 240.469 29.74 240.649 29.56C240.829 29.38 241.009 29.2 241.189 29.02C241.969 28.24 242.689 27.64 243.349 27.22C243.529 27.1 243.709 27.01 243.889 26.95C244.129 26.83 244.339 26.71 244.519 26.59C244.699 26.47 244.879 26.41 245.059 26.41C245.239 26.35 245.419 26.26 245.599 26.14C246.919 25.66 248.299 25.27 249.739 24.97C250.099 24.91 250.459 24.88 250.819 24.88C251.179 24.82 251.509 24.76 251.809 24.7C252.289 24.7 252.619 24.67 252.799 24.61H253.339H253.609H253.789H253.969V33.61H253.699H253.339C253.219 33.61 253.099 33.64 252.979 33.7C252.919 33.7 252.829 33.7 252.709 33.7C252.289 33.7 251.839 33.76 251.359 33.88C250.879 34 250.429 34.12 250.009 34.24C249.589 34.3 249.229 34.39 248.929 34.51C248.689 34.63 248.539 34.69 248.479 34.69C248.359 34.75 248.269 34.81 248.209 34.87C248.209 34.87 248.149 34.9 248.029 34.96C247.909 35.02 247.759 35.14 247.579 35.32C247.519 35.38 247.489 35.41 247.489 35.41V35.5V35.59V35.77V35.86V35.95V36.04C247.549 36.16 247.579 36.25 247.579 36.31C247.579 36.31 247.609 36.37 247.669 36.49C247.789 36.73 247.909 36.91 248.029 37.03L248.749 37.75C248.929 37.87 249.079 38.02 249.199 38.2C249.379 38.32 249.589 38.44 249.829 38.56C250.009 38.68 250.189 38.83 250.369 39.01C250.609 39.13 250.849 39.25 251.089 39.37C251.569 39.67 252.049 40 252.529 40.36C253.009 40.66 253.519 41.02 254.059 41.44C254.359 41.62 254.629 41.83 254.869 42.07C255.109 42.25 255.379 42.46 255.679 42.7C256.219 43.12 256.789 43.66 257.389 44.32C257.689 44.62 257.929 44.95 258.109 45.31C258.349 45.61 258.619 45.94 258.919 46.3C259.399 47.08 259.759 47.89 259.999 48.73C260.299 49.45 260.509 50.32 260.629 51.34C260.629 51.46 260.629 51.58 260.629 51.7C260.689 51.76 260.719 51.85 260.719 51.97V52.24V52.42ZM294.781 47.83L280.291 66.28L265.711 50.53L277.951 30.01L285.691 34.69L284.341 36.85L294.781 47.83ZM279.571 44.95L276.871 49.36L280.201 53.05L283.081 48.82L279.571 44.95ZM308.7 34.69H315V43.69H308.7V72.13H299.7V17.59H302.85V16.33C306.39 16.21 309.9 16.18 313.38 16.24C316.92 16.3 320.49 16.45 324.09 16.69L323.55 25.69C321.03 25.57 318.54 25.48 316.08 25.42C313.68 25.3 311.22 25.24 308.7 25.24V34.69ZM329.031 21.19H338.031V69.79H329.031V21.19ZM399.338 66.19L399.248 66.1L399.338 66.55L390.788 69.16L386.828 56.38L383.138 66.28H383.048L383.228 67L374.588 69.43L363.698 31.9L372.338 29.38L378.908 51.88L384.218 37.48L392.678 40.63L391.958 42.43L394.748 51.34L402.758 26.68L411.308 29.47L399.338 66.19ZM429.122 27.22C430.862 34.06 432.722 40.81 434.702 47.47C436.742 54.07 438.962 60.64 441.362 67.18L432.992 70.24C432.332 68.56 431.702 66.91 431.102 65.29C430.562 63.61 429.992 61.93 429.392 60.25C428.072 60.25 426.752 60.25 425.432 60.25C424.172 60.25 422.882 60.22 421.562 60.16L420.572 67.36L411.662 66.19L417.242 25.06L426.152 26.32L425.882 28.03L429.122 27.22ZM422.732 51.16C423.392 51.22 424.022 51.25 424.622 51.25C425.222 51.25 425.852 51.25 426.512 51.25C426.032 49.81 425.582 48.37 425.162 46.93C424.742 45.49 424.322 44.05 423.902 42.61L422.732 51.16ZM468.134 26.59C468.794 27.55 469.304 28.57 469.664 29.65C470.024 30.73 470.264 31.84 470.384 32.98C470.564 33.94 470.594 35.08 470.474 36.4C470.354 37.48 470.114 38.56 469.754 39.64C469.454 40.72 469.004 41.74 468.404 42.7C467.864 43.66 467.264 44.56 466.604 45.4C465.884 46.24 465.104 47.02 464.264 47.74L463.994 48.01L463.634 48.19L463.274 48.46L463.004 48.73C464.324 51.01 465.584 53.35 466.784 55.75C467.984 58.09 469.184 60.49 470.384 62.95L462.374 66.82C461.234 64.54 460.064 62.32 458.864 60.16C457.724 57.94 456.554 55.72 455.354 53.5V72.13H446.354V17.59H454.184L454.544 16.87L458.864 19.3L460.934 20.47C461.354 20.65 461.744 20.86 462.104 21.1C462.464 21.28 462.884 21.52 463.364 21.82C463.784 22.12 464.204 22.42 464.624 22.72C465.044 23.02 465.464 23.38 465.884 23.8C466.784 24.64 467.534 25.57 468.134 26.59ZM458.414 29.38C458.114 29.2 457.814 29.02 457.514 28.84C457.274 28.66 456.974 28.48 456.614 28.3L455.354 27.58V42.79C455.654 42.61 455.954 42.43 456.254 42.25C456.554 42.07 456.854 41.89 457.154 41.71C457.274 41.59 457.394 41.53 457.514 41.53C457.694 41.47 457.844 41.38 457.964 41.26L458.144 41.08L458.234 40.99L458.414 40.9L458.594 40.72C458.774 40.6 458.954 40.45 459.134 40.27C459.374 40.09 459.554 39.88 459.674 39.64C460.454 38.8 460.964 37.9 461.204 36.94C461.384 36.46 461.474 35.98 461.474 35.5C461.594 35.02 461.594 34.54 461.474 34.06C461.414 33.58 461.294 33.13 461.114 32.71C460.994 32.23 460.814 31.78 460.574 31.36C460.214 30.88 459.914 30.55 459.674 30.37C459.554 30.19 459.374 30.04 459.134 29.92C458.954 29.74 458.714 29.56 458.414 29.38ZM495.219 29.11H504.219V69.79H495.219V64.3C494.919 63.64 494.589 62.95 494.229 62.23C493.869 61.51 493.509 60.79 493.149 60.07L491.979 57.64L490.809 55.21C489.969 53.65 489.159 52.06 488.379 50.44C487.599 48.82 486.789 47.2 485.949 45.58C485.709 45.1 485.469 44.62 485.229 44.14C484.989 43.66 484.749 43.18 484.509 42.7V72.31H475.509V19.21H484.509V22.45C484.869 23.23 485.229 24.01 485.589 24.79C486.009 25.57 486.399 26.35 486.759 27.13L487.929 29.56L489.189 31.9C489.969 33.52 490.749 35.14 491.529 36.76C492.309 38.38 493.119 39.97 493.959 41.53C494.199 42.01 494.409 42.46 494.589 42.88C494.829 43.24 495.039 43.63 495.219 44.05V29.11ZM526.607 27.22C528.347 34.06 530.207 40.81 532.187 47.47C534.227 54.07 536.447 60.64 538.847 67.18L530.477 70.24C529.817 68.56 529.187 66.91 528.587 65.29C528.047 63.61 527.477 61.93 526.877 60.25C525.557 60.25 524.237 60.25 522.917 60.25C521.657 60.25 520.367 60.22 519.047 60.16L518.057 67.36L509.147 66.19L514.727 25.06L523.637 26.32L523.367 28.03L526.607 27.22ZM520.217 51.16C520.877 51.22 521.507 51.25 522.107 51.25C522.707 51.25 523.337 51.25 523.997 51.25C523.517 49.81 523.067 48.37 522.647 46.93C522.227 45.49 521.807 44.05 521.387 42.61L520.217 51.16Z" fill="#BCDB37"/>
<path d="M157.861 30.69H164.161V39.69H157.861V68.13H148.861V13.59H152.011V12.33C155.551 12.21 159.061 12.18 162.541 12.24C166.081 12.3 169.651 12.45 173.251 12.69L172.711 21.69C170.191 21.57 167.701 21.48 165.241 21.42C162.841 21.3 160.381 21.24 157.861 21.24V30.69ZM178.192 17.19H187.192V65.79H178.192V17.19ZM213.742 70.02C211.642 70.08 209.542 70.17 207.442 70.29C205.342 70.41 203.242 70.62 201.142 70.92V74.25H192.142V15.75H201.142V61.92C203.182 61.62 205.222 61.41 207.262 61.29C209.302 61.17 211.372 61.08 213.472 61.02L213.742 70.02ZM234.723 43.83L220.233 62.28L205.653 46.53L217.893 26.01L225.633 30.69L224.283 32.85L234.723 43.83ZM219.513 40.95L216.813 45.36L220.143 49.05L223.023 44.82L219.513 40.95ZM255.719 48.42V48.6V49.5C255.719 49.86 255.689 50.13 255.629 50.31C255.449 51.57 255.059 52.65 254.459 53.55C254.339 53.67 254.249 53.79 254.189 53.91C254.129 53.97 254.099 54.03 254.099 54.09L254.009 54.18C253.949 54.3 253.859 54.42 253.739 54.54C253.619 54.66 253.559 54.75 253.559 54.81C253.139 55.23 252.809 55.53 252.569 55.71C252.269 56.01 251.969 56.28 251.669 56.52C251.369 56.76 251.069 57 250.769 57.24C250.529 57.42 250.229 57.63 249.869 57.87C249.689 57.99 249.509 58.08 249.329 58.14C249.209 58.2 249.059 58.29 248.879 58.41C247.739 59.07 246.479 59.64 245.099 60.12C243.899 60.54 242.579 60.9 241.139 61.2C240.479 61.32 239.789 61.44 239.069 61.56C238.409 61.62 237.689 61.65 236.909 61.65V52.65C237.689 52.65 238.529 52.56 239.429 52.38C239.909 52.26 240.359 52.14 240.779 52.02C241.199 51.9 241.649 51.78 242.129 51.66L244.559 50.58C244.679 50.46 244.859 50.34 245.099 50.22C245.339 50.1 245.489 49.98 245.549 49.86C245.729 49.74 245.879 49.65 245.999 49.59C246.119 49.47 246.239 49.35 246.359 49.23C246.479 49.17 246.539 49.14 246.539 49.14C246.539 49.08 246.569 49.02 246.629 48.96C246.689 48.96 246.719 48.93 246.719 48.87V48.78V48.69V48.51C246.659 48.39 246.629 48.27 246.629 48.15C246.629 47.97 246.599 47.82 246.539 47.7C246.479 47.58 246.419 47.49 246.359 47.43C246.359 47.31 246.299 47.19 246.179 47.07C246.059 46.77 245.879 46.53 245.639 46.35C245.219 45.87 244.619 45.33 243.839 44.73C243.419 44.43 242.969 44.13 242.489 43.83C242.069 43.53 241.619 43.23 241.139 42.93L239.519 41.85C239.219 41.67 238.949 41.49 238.709 41.31C238.469 41.07 238.199 40.83 237.899 40.59C237.599 40.29 237.299 40.02 236.999 39.78C236.759 39.48 236.489 39.15 236.189 38.79C235.889 38.49 235.619 38.16 235.379 37.8C235.139 37.44 234.899 37.02 234.659 36.54C234.179 35.52 233.849 34.59 233.669 33.75V33.39C233.609 33.33 233.579 33.21 233.579 33.03V32.67L233.489 32.4V31.68V31.32V30.87C233.609 30.39 233.699 29.85 233.759 29.25C233.879 28.65 234.059 28.14 234.299 27.72C234.419 27.42 234.539 27.15 234.659 26.91C234.839 26.67 234.989 26.43 235.109 26.19C235.289 25.95 235.469 25.74 235.649 25.56C235.829 25.38 236.009 25.2 236.189 25.02C236.969 24.24 237.689 23.64 238.349 23.22C238.529 23.1 238.709 23.01 238.889 22.95C239.129 22.83 239.339 22.71 239.519 22.59C239.699 22.47 239.879 22.41 240.059 22.41C240.239 22.35 240.419 22.26 240.599 22.14C241.919 21.66 243.299 21.27 244.739 20.97C245.099 20.91 245.459 20.88 245.819 20.88C246.179 20.82 246.509 20.76 246.809 20.7C247.289 20.7 247.619 20.67 247.799 20.61H248.339H248.609H248.789H248.969V29.61H248.699H248.339C248.219 29.61 248.099 29.64 247.979 29.7C247.919 29.7 247.829 29.7 247.709 29.7C247.289 29.7 246.839 29.76 246.359 29.88C245.879 30 245.429 30.12 245.009 30.24C244.589 30.3 244.229 30.39 243.929 30.51C243.689 30.63 243.539 30.69 243.479 30.69C243.359 30.75 243.269 30.81 243.209 30.87C243.209 30.87 243.149 30.9 243.029 30.96C242.909 31.02 242.759 31.14 242.579 31.32C242.519 31.38 242.489 31.41 242.489 31.41V31.5V31.59V31.77V31.86V31.95V32.04C242.549 32.16 242.579 32.25 242.579 32.31C242.579 32.31 242.609 32.37 242.669 32.49C242.789 32.73 242.909 32.91 243.029 33.03L243.749 33.75C243.929 33.87 244.079 34.02 244.199 34.2C244.379 34.32 244.589 34.44 244.829 34.56C245.009 34.68 245.189 34.83 245.369 35.01C245.609 35.13 245.849 35.25 246.089 35.37C246.569 35.67 247.049 36 247.529 36.36C248.009 36.66 248.519 37.02 249.059 37.44C249.359 37.62 249.629 37.83 249.869 38.07C250.109 38.25 250.379 38.46 250.679 38.7C251.219 39.12 251.789 39.66 252.389 40.32C252.689 40.62 252.929 40.95 253.109 41.31C253.349 41.61 253.619 41.94 253.919 42.3C254.399 43.08 254.759 43.89 254.999 44.73C255.299 45.45 255.509 46.32 255.629 47.34C255.629 47.46 255.629 47.58 255.629 47.7C255.689 47.76 255.719 47.85 255.719 47.97V48.24V48.42ZM289.781 43.83L275.291 62.28L260.711 46.53L272.951 26.01L280.691 30.69L279.341 32.85L289.781 43.83ZM274.571 40.95L271.871 45.36L275.201 49.05L278.081 44.82L274.571 40.95ZM303.7 30.69H310V39.69H303.7V68.13H294.7V13.59H297.85V12.33C301.39 12.21 304.9 12.18 308.38 12.24C311.92 12.3 315.49 12.45 319.09 12.69L318.55 21.69C316.03 21.57 313.54 21.48 311.08 21.42C308.68 21.3 306.22 21.24 303.7 21.24V30.69ZM324.031 17.19H333.031V65.79H324.031V17.19ZM394.338 62.19L394.248 62.1L394.338 62.55L385.788 65.16L381.828 52.38L378.138 62.28H378.048L378.228 63L369.588 65.43L358.698 27.9L367.338 25.38L373.908 47.88L379.218 33.48L387.678 36.63L386.958 38.43L389.748 47.34L397.758 22.68L406.308 25.47L394.338 62.19ZM424.122 23.22C425.862 30.06 427.722 36.81 429.702 43.47C431.742 50.07 433.962 56.64 436.362 63.18L427.992 66.24C427.332 64.56 426.702 62.91 426.102 61.29C425.562 59.61 424.992 57.93 424.392 56.25C423.072 56.25 421.752 56.25 420.432 56.25C419.172 56.25 417.882 56.22 416.562 56.16L415.572 63.36L406.662 62.19L412.242 21.06L421.152 22.32L420.882 24.03L424.122 23.22ZM417.732 47.16C418.392 47.22 419.022 47.25 419.622 47.25C420.222 47.25 420.852 47.25 421.512 47.25C421.032 45.81 420.582 44.37 420.162 42.93C419.742 41.49 419.322 40.05 418.902 38.61L417.732 47.16ZM463.134 22.59C463.794 23.55 464.304 24.57 464.664 25.65C465.024 26.73 465.264 27.84 465.384 28.98C465.564 29.94 465.594 31.08 465.474 32.4C465.354 33.48 465.114 34.56 464.754 35.64C464.454 36.72 464.004 37.74 463.404 38.7C462.864 39.66 462.264 40.56 461.604 41.4C460.884 42.24 460.104 43.02 459.264 43.74L458.994 44.01L458.634 44.19L458.274 44.46L458.004 44.73C459.324 47.01 460.584 49.35 461.784 51.75C462.984 54.09 464.184 56.49 465.384 58.95L457.374 62.82C456.234 60.54 455.064 58.32 453.864 56.16C452.724 53.94 451.554 51.72 450.354 49.5V68.13H441.354V13.59H449.184L449.544 12.87L453.864 15.3L455.934 16.47C456.354 16.65 456.744 16.86 457.104 17.1C457.464 17.28 457.884 17.52 458.364 17.82C458.784 18.12 459.204 18.42 459.624 18.72C460.044 19.02 460.464 19.38 460.884 19.8C461.784 20.64 462.534 21.57 463.134 22.59ZM453.414 25.38C453.114 25.2 452.814 25.02 452.514 24.84C452.274 24.66 451.974 24.48 451.614 24.3L450.354 23.58V38.79C450.654 38.61 450.954 38.43 451.254 38.25C451.554 38.07 451.854 37.89 452.154 37.71C452.274 37.59 452.394 37.53 452.514 37.53C452.694 37.47 452.844 37.38 452.964 37.26L453.144 37.08L453.234 36.99L453.414 36.9L453.594 36.72C453.774 36.6 453.954 36.45 454.134 36.27C454.374 36.09 454.554 35.88 454.674 35.64C455.454 34.8 455.964 33.9 456.204 32.94C456.384 32.46 456.474 31.98 456.474 31.5C456.594 31.02 456.594 30.54 456.474 30.06C456.414 29.58 456.294 29.13 456.114 28.71C455.994 28.23 455.814 27.78 455.574 27.36C455.214 26.88 454.914 26.55 454.674 26.37C454.554 26.19 454.374 26.04 454.134 25.92C453.954 25.74 453.714 25.56 453.414 25.38ZM490.219 25.11H499.219V65.79H490.219V60.3C489.919 59.64 489.589 58.95 489.229 58.23C488.869 57.51 488.509 56.79 488.149 56.07L486.979 53.64L485.809 51.21C484.969 49.65 484.159 48.06 483.379 46.44C482.599 44.82 481.789 43.2 480.949 41.58C480.709 41.1 480.469 40.62 480.229 40.14C479.989 39.66 479.749 39.18 479.509 38.7V68.31H470.509V15.21H479.509V18.45C479.869 19.23 480.229 20.01 480.589 20.79C481.009 21.57 481.399 22.35 481.759 23.13L482.929 25.56L484.189 27.9C484.969 29.52 485.749 31.14 486.529 32.76C487.309 34.38 488.119 35.97 488.959 37.53C489.199 38.01 489.409 38.46 489.589 38.88C489.829 39.24 490.039 39.63 490.219 40.05V25.11ZM521.607 23.22C523.347 30.06 525.207 36.81 527.187 43.47C529.227 50.07 531.447 56.64 533.847 63.18L525.477 66.24C524.817 64.56 524.187 62.91 523.587 61.29C523.047 59.61 522.477 57.93 521.877 56.25C520.557 56.25 519.237 56.25 517.917 56.25C516.657 56.25 515.367 56.22 514.047 56.16L513.057 63.36L504.147 62.19L509.727 21.06L518.637 22.32L518.367 24.03L521.607 23.22ZM515.217 47.16C515.877 47.22 516.507 47.25 517.107 47.25C517.707 47.25 518.337 47.25 518.997 47.25C518.517 45.81 518.067 44.37 517.647 42.93C517.227 41.49 516.807 40.05 516.387 38.61L515.217 47.16Z" fill="#208B71"/>
<line x1="187" y1="104.5" x2="507" y2="104.5" stroke="#BCDB37" stroke-width="3"/>
<line x1="287" y1="104" x2="407" y2="104" stroke="#208B71" stroke-width="8"/>
</svg>
