<svg width="220" height="164" viewBox="0 0 220 164" fill="none" xmlns="http://www.w3.org/2000/svg">
<path d="M91.6409 39.1C90.9409 51.9 90.6409 64.8 90.7409 77.8C90.9409 90.7 91.2409 103.55 91.6409 116.35L76.6409 116.95C76.4409 108.45 76.2909 100.05 76.1909 91.75C76.0909 83.35 75.9909 74.9 75.8909 66.4L68.3909 78.7L71.2409 85L57.7409 91.3L49.1909 73.15V112.75H34.1909V32.35H49.1909V37.75L60.7409 62.5L76.0409 35.2L91.6409 39.1ZM99.9214 35.65H114.921V116.65H99.9214V35.65ZM160.221 87.7V88V89.5C160.221 90.1 160.171 90.55 160.071 90.85C159.771 92.95 159.121 94.75 158.121 96.25C157.921 96.45 157.771 96.65 157.671 96.85C157.571 96.95 157.521 97.05 157.521 97.15L157.371 97.3C157.271 97.5 157.121 97.7 156.921 97.9C156.721 98.1 156.621 98.25 156.621 98.35C155.921 99.05 155.371 99.55 154.971 99.85C154.471 100.35 153.971 100.8 153.471 101.2C152.971 101.6 152.471 102 151.971 102.4C151.571 102.7 151.071 103.05 150.471 103.45C150.171 103.65 149.871 103.8 149.571 103.9C149.371 104 149.121 104.15 148.821 104.35C146.921 105.45 144.821 106.4 142.521 107.2C140.521 107.9 138.321 108.5 135.921 109C134.821 109.2 133.671 109.4 132.471 109.6C131.371 109.7 130.171 109.75 128.871 109.75V94.75C130.171 94.75 131.571 94.6 133.071 94.3C133.871 94.1 134.621 93.9 135.321 93.7C136.021 93.5 136.771 93.3 137.571 93.1L141.621 91.3C141.821 91.1 142.121 90.9 142.521 90.7C142.921 90.5 143.171 90.3 143.271 90.1C143.571 89.9 143.821 89.75 144.021 89.65C144.221 89.45 144.421 89.25 144.621 89.05C144.821 88.95 144.921 88.9 144.921 88.9C144.921 88.8 144.971 88.7 145.071 88.6C145.171 88.6 145.221 88.55 145.221 88.45V88.3V88.15V87.85C145.121 87.65 145.071 87.45 145.071 87.25C145.071 86.95 145.021 86.7 144.921 86.5C144.821 86.3 144.721 86.15 144.621 86.05C144.621 85.85 144.521 85.65 144.321 85.45C144.121 84.95 143.821 84.55 143.421 84.25C142.721 83.45 141.721 82.55 140.421 81.55C139.721 81.05 138.971 80.55 138.171 80.05C137.471 79.55 136.721 79.05 135.921 78.55L133.221 76.75C132.721 76.45 132.271 76.15 131.871 75.85C131.471 75.45 131.021 75.05 130.521 74.65C130.021 74.15 129.521 73.7 129.021 73.3C128.621 72.8 128.171 72.25 127.671 71.65C127.171 71.15 126.721 70.6 126.321 70C125.921 69.4 125.521 68.7 125.121 67.9C124.321 66.2 123.771 64.65 123.471 63.25V62.65C123.371 62.55 123.321 62.35 123.321 62.05V61.45L123.171 61V59.8V59.2V58.45C123.371 57.65 123.521 56.75 123.621 55.75C123.821 54.75 124.121 53.9 124.521 53.2C124.721 52.7 124.921 52.25 125.121 51.85C125.421 51.45 125.671 51.05 125.871 50.65C126.171 50.25 126.471 49.9 126.771 49.6C127.071 49.3 127.371 49 127.671 48.7C128.971 47.4 130.171 46.4 131.271 45.7C131.571 45.5 131.871 45.35 132.171 45.25C132.571 45.05 132.921 44.85 133.221 44.65C133.521 44.45 133.821 44.35 134.121 44.35C134.421 44.25 134.721 44.1 135.021 43.9C137.221 43.1 139.521 42.45 141.921 41.95C142.521 41.85 143.121 41.8 143.721 41.8C144.321 41.7 144.871 41.6 145.371 41.5C146.171 41.5 146.721 41.45 147.021 41.35H147.921H148.371H148.671H148.971V56.35H148.521H147.921C147.721 56.35 147.521 56.4 147.321 56.5C147.221 56.5 147.071 56.5 146.871 56.5C146.171 56.5 145.421 56.6 144.621 56.8C143.821 57 143.071 57.2 142.371 57.4C141.671 57.5 141.071 57.65 140.571 57.85C140.171 58.05 139.921 58.15 139.821 58.15C139.621 58.25 139.471 58.35 139.371 58.45C139.371 58.45 139.271 58.5 139.071 58.6C138.871 58.7 138.621 58.9 138.321 59.2C138.221 59.3 138.171 59.35 138.171 59.35V59.5V59.65V59.95V60.1V60.25V60.4C138.271 60.6 138.321 60.75 138.321 60.85C138.321 60.85 138.371 60.95 138.471 61.15C138.671 61.55 138.871 61.85 139.071 62.05L140.271 63.25C140.571 63.45 140.821 63.7 141.021 64C141.321 64.2 141.671 64.4 142.071 64.6C142.371 64.8 142.671 65.05 142.971 65.35C143.371 65.55 143.771 65.75 144.171 65.95C144.971 66.45 145.771 67 146.571 67.6C147.371 68.1 148.221 68.7 149.121 69.4C149.621 69.7 150.071 70.05 150.471 70.45C150.871 70.75 151.321 71.1 151.821 71.5C152.721 72.2 153.671 73.1 154.671 74.2C155.171 74.7 155.571 75.25 155.871 75.85C156.271 76.35 156.721 76.9 157.221 77.5C158.021 78.8 158.621 80.15 159.021 81.55C159.521 82.75 159.871 84.2 160.071 85.9C160.071 86.1 160.071 86.3 160.071 86.5C160.171 86.6 160.221 86.75 160.221 86.95V87.4V87.7ZM168.541 35.65H183.541V116.65H168.541V35.65Z" fill="#FE7201"/>
<path d="M90.1595 32.1C89.4595 44.9 89.1595 57.8 89.2595 70.8C89.4595 83.7 89.7595 96.55 90.1595 109.35L75.1595 109.95C74.9595 101.45 74.8095 93.05 74.7095 84.75C74.6095 76.35 74.5095 67.9 74.4095 59.4L66.9095 71.7L69.7595 78L56.2595 84.3L47.7095 66.15V105.75H32.7095V25.35H47.7095V30.75L59.2595 55.5L74.5595 28.2L90.1595 32.1ZM98.4399 28.65H113.44V109.65H98.4399V28.65ZM158.74 80.7V81V82.5C158.74 83.1 158.69 83.55 158.59 83.85C158.29 85.95 157.64 87.75 156.64 89.25C156.44 89.45 156.29 89.65 156.19 89.85C156.09 89.95 156.04 90.05 156.04 90.15L155.89 90.3C155.79 90.5 155.64 90.7 155.44 90.9C155.24 91.1 155.14 91.25 155.14 91.35C154.44 92.05 153.89 92.55 153.49 92.85C152.99 93.35 152.49 93.8 151.99 94.2C151.49 94.6 150.99 95 150.49 95.4C150.09 95.7 149.59 96.05 148.99 96.45C148.69 96.65 148.39 96.8 148.09 96.9C147.89 97 147.64 97.15 147.34 97.35C145.44 98.45 143.34 99.4 141.04 100.2C139.04 100.9 136.84 101.5 134.44 102C133.34 102.2 132.19 102.4 130.99 102.6C129.89 102.7 128.69 102.75 127.39 102.75V87.75C128.69 87.75 130.09 87.6 131.59 87.3C132.39 87.1 133.14 86.9 133.84 86.7C134.54 86.5 135.29 86.3 136.09 86.1L140.14 84.3C140.34 84.1 140.64 83.9 141.04 83.7C141.44 83.5 141.69 83.3 141.79 83.1C142.09 82.9 142.34 82.75 142.54 82.65C142.74 82.45 142.94 82.25 143.14 82.05C143.34 81.95 143.44 81.9 143.44 81.9C143.44 81.8 143.49 81.7 143.59 81.6C143.69 81.6 143.74 81.55 143.74 81.45V81.3V81.15V80.85C143.64 80.65 143.59 80.45 143.59 80.25C143.59 79.95 143.54 79.7 143.44 79.5C143.34 79.3 143.24 79.15 143.14 79.05C143.14 78.85 143.04 78.65 142.84 78.45C142.64 77.95 142.34 77.55 141.94 77.25C141.24 76.45 140.24 75.55 138.94 74.55C138.24 74.05 137.49 73.55 136.69 73.05C135.99 72.55 135.24 72.05 134.44 71.55L131.74 69.75C131.24 69.45 130.79 69.15 130.39 68.85C129.99 68.45 129.54 68.05 129.04 67.65C128.54 67.15 128.04 66.7 127.54 66.3C127.14 65.8 126.69 65.25 126.19 64.65C125.69 64.15 125.24 63.6 124.84 63C124.44 62.4 124.04 61.7 123.64 60.9C122.84 59.2 122.29 57.65 121.99 56.25V55.65C121.89 55.55 121.84 55.35 121.84 55.05V54.45L121.69 54V52.8V52.2V51.45C121.89 50.65 122.04 49.75 122.14 48.75C122.34 47.75 122.64 46.9 123.04 46.2C123.24 45.7 123.44 45.25 123.64 44.85C123.94 44.45 124.19 44.05 124.39 43.65C124.69 43.25 124.99 42.9 125.29 42.6C125.59 42.3 125.89 42 126.19 41.7C127.49 40.4 128.69 39.4 129.79 38.7C130.09 38.5 130.39 38.35 130.69 38.25C131.09 38.05 131.44 37.85 131.74 37.65C132.04 37.45 132.34 37.35 132.64 37.35C132.94 37.25 133.24 37.1 133.54 36.9C135.74 36.1 138.04 35.45 140.44 34.95C141.04 34.85 141.64 34.8 142.24 34.8C142.84 34.7 143.39 34.6 143.89 34.5C144.69 34.5 145.24 34.45 145.54 34.35H146.44H146.89H147.19H147.49V49.35H147.04H146.44C146.24 49.35 146.04 49.4 145.84 49.5C145.74 49.5 145.59 49.5 145.39 49.5C144.69 49.5 143.94 49.6 143.14 49.8C142.34 50 141.59 50.2 140.89 50.4C140.19 50.5 139.59 50.65 139.09 50.85C138.69 51.05 138.44 51.15 138.34 51.15C138.14 51.25 137.99 51.35 137.89 51.45C137.89 51.45 137.79 51.5 137.59 51.6C137.39 51.7 137.14 51.9 136.84 52.2C136.74 52.3 136.69 52.35 136.69 52.35V52.5V52.65V52.95V53.1V53.25V53.4C136.79 53.6 136.84 53.75 136.84 53.85C136.84 53.85 136.89 53.95 136.99 54.15C137.19 54.55 137.39 54.85 137.59 55.05L138.79 56.25C139.09 56.45 139.34 56.7 139.54 57C139.84 57.2 140.19 57.4 140.59 57.6C140.89 57.8 141.19 58.05 141.49 58.35C141.89 58.55 142.29 58.75 142.69 58.95C143.49 59.45 144.29 60 145.09 60.6C145.89 61.1 146.74 61.7 147.64 62.4C148.14 62.7 148.59 63.05 148.99 63.45C149.39 63.75 149.84 64.1 150.34 64.5C151.24 65.2 152.19 66.1 153.19 67.2C153.69 67.7 154.09 68.25 154.39 68.85C154.79 69.35 155.24 69.9 155.74 70.5C156.54 71.8 157.14 73.15 157.54 74.55C158.04 75.75 158.39 77.2 158.59 78.9C158.59 79.1 158.59 79.3 158.59 79.5C158.69 79.6 158.74 79.75 158.74 79.95V80.4V80.7ZM167.059 28.65H182.059V109.65H167.059V28.65Z" fill="#BCDB37"/>
<line x1="48.8887" y1="160.5" x2="173.333" y2="160.5" stroke="#FE7201" stroke-width="3"/>
<line x1="87.7773" y1="159.051" x2="134.444" y2="159.051" stroke="#BCDB37" stroke-width="8"/>
</svg>
