<svg width="410" height="108" viewBox="0 0 410 108" fill="none" xmlns="http://www.w3.org/2000/svg">
<path d="M54.5606 29.11H63.5606V69.79H54.5606V64.3C54.2606 63.64 53.9306 62.95 53.5706 62.23C53.2106 61.51 52.8506 60.79 52.4906 60.07L51.3206 57.64L50.1506 55.21C49.3106 53.65 48.5006 52.06 47.7206 50.44C46.9406 48.82 46.1306 47.2 45.2906 45.58C45.0506 45.1 44.8106 44.62 44.5706 44.14C44.3306 43.66 44.0906 43.18 43.8506 42.7V72.31H34.8506V19.21H43.8506V22.45C44.2106 23.23 44.5706 24.01 44.9306 24.79C45.3506 25.57 45.7406 26.35 46.1006 27.13L47.2706 29.56L48.5306 31.9C49.3106 33.52 50.0906 35.14 50.8706 36.76C51.6506 38.38 52.4606 39.97 53.3006 41.53C53.5406 42.01 53.7506 42.46 53.9306 42.88C54.1706 43.24 54.3806 43.63 54.5606 44.05V29.11ZM68.4881 21.19H77.4881V69.79H68.4881V21.19ZM104.038 74.02C101.938 74.08 99.8381 74.17 97.7381 74.29C95.6381 74.41 93.5381 74.62 91.4381 74.92V78.25H82.4381V19.75H91.4381V65.92C93.4781 65.62 95.5181 65.41 97.5581 65.29C99.5981 65.17 101.668 65.08 103.768 65.02L104.038 74.02ZM126.416 27.22C128.156 34.06 130.016 40.81 131.996 47.47C134.036 54.07 136.256 60.64 138.656 67.18L130.286 70.24C129.626 68.56 128.996 66.91 128.396 65.29C127.856 63.61 127.286 61.93 126.686 60.25C125.366 60.25 124.046 60.25 122.726 60.25C121.466 60.25 120.176 60.22 118.856 60.16L117.866 67.36L108.956 66.19L114.536 25.06L123.446 26.32L123.176 28.03L126.416 27.22ZM120.026 51.16C120.686 51.22 121.316 51.25 121.916 51.25C122.516 51.25 123.146 51.25 123.806 51.25C123.326 49.81 122.876 48.37 122.456 46.93C122.036 45.49 121.616 44.05 121.196 42.61L120.026 51.16ZM143.649 21.19H152.649V69.79H143.649V21.19ZM191.096 46.48C192.476 48.22 193.766 49.96 194.966 51.7C196.166 53.44 197.366 55.18 198.566 56.92C200.126 59.26 201.626 61.63 203.066 64.03C204.506 66.37 205.916 68.71 207.296 71.05L199.556 75.64C198.176 73.3 196.766 70.99 195.326 68.71C193.946 66.43 192.536 64.15 191.096 61.87C190.436 60.97 189.806 60.07 189.206 59.17C188.606 58.21 187.976 57.28 187.316 56.38V76.45H178.316V19.75H187.316V36.22L196.406 23.35L203.786 28.57L191.096 46.48ZM210.548 21.19H219.548V69.79H210.548V21.19ZM244.208 29.11H253.208V69.79H244.208V64.3C243.908 63.64 243.578 62.95 243.218 62.23C242.858 61.51 242.498 60.79 242.138 60.07L240.968 57.64L239.798 55.21C238.958 53.65 238.148 52.06 237.368 50.44C236.588 48.82 235.778 47.2 234.938 45.58C234.698 45.1 234.458 44.62 234.218 44.14C233.978 43.66 233.738 43.18 233.498 42.7V72.31H224.498V19.21H233.498V22.45C233.858 23.23 234.218 24.01 234.578 24.79C234.998 25.57 235.388 26.35 235.748 27.13L236.918 29.56L238.178 31.9C238.958 33.52 239.738 35.14 240.518 36.76C241.298 38.38 242.108 39.97 242.948 41.53C243.188 42.01 243.398 42.46 243.578 42.88C243.818 43.24 244.028 43.63 244.208 44.05V29.11ZM267.135 55.48C270.975 55.48 274.815 55.39 278.655 55.21L279.015 64.21C272.475 64.45 265.905 64.54 259.305 64.48V63.22H258.135V29.74H258.945L258.855 29.11C261.975 28.69 265.095 28.42 268.215 28.3C271.335 28.12 274.455 28.09 277.575 28.21L277.395 37.21C275.655 37.15 273.945 37.15 272.265 37.21C270.585 37.21 268.875 37.27 267.135 37.39V42.79H268.485L274.155 42.61L274.335 51.61L268.755 51.79H267.135V55.48ZM305.73 26.59C306.39 27.55 306.9 28.57 307.26 29.65C307.62 30.73 307.86 31.84 307.98 32.98C308.16 33.94 308.19 35.08 308.07 36.4C307.95 37.48 307.71 38.56 307.35 39.64C307.05 40.72 306.6 41.74 306 42.7C305.46 43.66 304.86 44.56 304.2 45.4C303.48 46.24 302.7 47.02 301.86 47.74L301.59 48.01L301.23 48.19L300.87 48.46L300.6 48.73C301.92 51.01 303.18 53.35 304.38 55.75C305.58 58.09 306.78 60.49 307.98 62.95L299.97 66.82C298.83 64.54 297.66 62.32 296.46 60.16C295.32 57.94 294.15 55.72 292.95 53.5V72.13H283.95V17.59H291.78L292.14 16.87L296.46 19.3L298.53 20.47C298.95 20.65 299.34 20.86 299.7 21.1C300.06 21.28 300.48 21.52 300.96 21.82C301.38 22.12 301.8 22.42 302.22 22.72C302.64 23.02 303.06 23.38 303.48 23.8C304.38 24.64 305.13 25.57 305.73 26.59ZM296.01 29.38C295.71 29.2 295.41 29.02 295.11 28.84C294.87 28.66 294.57 28.48 294.21 28.3L292.95 27.58V42.79C293.25 42.61 293.55 42.43 293.85 42.25C294.15 42.07 294.45 41.89 294.75 41.71C294.87 41.59 294.99 41.53 295.11 41.53C295.29 41.47 295.44 41.38 295.56 41.26L295.74 41.08L295.83 40.99L296.01 40.9L296.19 40.72C296.37 40.6 296.55 40.45 296.73 40.27C296.97 40.09 297.15 39.88 297.27 39.64C298.05 38.8 298.56 37.9 298.8 36.94C298.98 36.46 299.07 35.98 299.07 35.5C299.19 35.02 299.19 34.54 299.07 34.06C299.01 33.58 298.89 33.13 298.71 32.71C298.59 32.23 298.41 31.78 298.17 31.36C297.81 30.88 297.51 30.55 297.27 30.37C297.15 30.19 296.97 30.04 296.73 29.92C296.55 29.74 296.31 29.56 296.01 29.38ZM328.343 17.95H342.113V39.64V43.96V44.5V45.13V46.21V47.38V47.92L342.023 48.46C342.023 50.02 341.933 51.58 341.753 53.14C341.573 54.58 341.303 56.14 340.943 57.82C340.763 58.66 340.553 59.47 340.313 60.25C340.073 61.03 339.803 61.84 339.503 62.68L339.323 63.22C339.263 63.4 339.173 63.61 339.053 63.85C338.993 64.03 338.903 64.24 338.783 64.48L338.423 65.11L338.243 65.38L338.063 65.65L337.793 66.28C337.673 66.4 337.583 66.52 337.523 66.64C337.523 66.7 337.463 66.79 337.343 66.91C337.283 67.03 337.223 67.12 337.163 67.18C337.103 67.24 337.043 67.33 336.983 67.45L336.533 68.08L336.263 68.35L335.993 68.62C335.813 68.86 335.483 69.22 335.003 69.7C334.763 69.94 334.553 70.12 334.373 70.24L334.103 70.51L333.833 70.69C333.713 70.81 333.593 70.9 333.473 70.96C333.413 71.02 333.323 71.08 333.203 71.14C333.083 71.26 332.963 71.35 332.843 71.41C332.783 71.41 332.693 71.47 332.573 71.59L332.393 71.68C332.273 71.74 332.213 71.77 332.213 71.77L331.853 71.95C331.613 72.13 331.373 72.25 331.133 72.31C331.013 72.37 330.893 72.43 330.773 72.49C330.653 72.55 330.533 72.61 330.413 72.67C330.293 72.73 330.053 72.82 329.693 72.94L329.333 73.03L328.973 73.12C328.853 73.18 328.613 73.27 328.253 73.39L327.533 73.48C327.473 73.54 327.353 73.57 327.173 73.57L326.813 73.66C326.693 73.66 326.573 73.69 326.453 73.75C326.333 73.75 326.213 73.75 326.093 73.75L325.373 73.84H325.103H324.743H324.023H323.933H323.843H323.573H323.033C322.913 73.84 322.823 73.84 322.763 73.84C322.703 73.78 322.643 73.75 322.583 73.75C322.463 73.75 322.373 73.75 322.313 73.75C322.253 73.69 322.163 73.66 322.043 73.66H321.773L321.503 73.57C321.443 73.51 321.383 73.48 321.323 73.48C321.263 73.48 321.173 73.45 321.053 73.39C320.933 73.33 320.783 73.3 320.603 73.3C320.423 73.24 320.273 73.18 320.153 73.12C319.493 72.82 318.923 72.52 318.443 72.22C317.963 71.86 317.513 71.5 317.093 71.14C316.613 70.72 316.193 70.33 315.833 69.97C315.533 69.55 315.233 69.1 314.933 68.62C314.633 68.2 314.363 67.78 314.123 67.36C313.943 66.94 313.733 66.49 313.493 66.01C313.313 65.53 313.133 65.08 312.953 64.66C312.833 64.24 312.713 63.79 312.593 63.31C312.173 61.63 311.963 59.83 311.963 57.91H320.963C320.963 59.11 321.083 60.16 321.323 61.06C321.623 62.14 321.983 62.98 322.403 63.58C322.763 64 323.003 64.27 323.123 64.39C323.303 64.63 323.483 64.75 323.663 64.75C323.723 64.81 323.753 64.84 323.753 64.84H323.843H323.933H324.383H324.563H324.743L325.103 64.75H325.463H325.643C325.703 64.69 325.763 64.66 325.823 64.66C325.943 64.66 326.033 64.63 326.093 64.57L326.453 64.48H326.633L326.723 64.39C326.843 64.39 326.933 64.36 326.993 64.3C327.053 64.3 327.113 64.3 327.173 64.3C327.233 64.24 327.293 64.21 327.353 64.21C327.413 64.15 327.443 64.12 327.443 64.12C327.503 64.12 327.563 64.09 327.623 64.03L327.713 63.94H327.803C327.923 63.82 328.013 63.76 328.073 63.76C328.193 63.64 328.283 63.58 328.343 63.58L328.433 63.49L328.613 63.4L328.793 63.13C328.853 63.13 328.943 63.07 329.063 62.95C329.123 62.89 329.153 62.86 329.153 62.86C329.153 62.8 329.183 62.74 329.243 62.68L329.333 62.59L329.513 62.41C329.513 62.35 329.573 62.26 329.693 62.14C329.813 62.02 329.873 61.93 329.873 61.87C329.993 61.75 330.083 61.63 330.143 61.51L330.323 61.24L330.413 61.06L330.503 60.88L330.683 60.52C330.683 60.4 330.743 60.28 330.863 60.16C330.863 60.04 330.923 59.92 331.043 59.8L331.133 59.35C331.613 58.27 331.943 57.13 332.123 55.93C332.243 55.27 332.363 54.64 332.483 54.04C332.603 53.44 332.693 52.81 332.753 52.15C332.873 51.49 332.933 50.83 332.933 50.17C332.993 49.45 333.053 48.76 333.113 48.1V47.65V47.11V46.12V45.04V44.77V44.5V43.96V39.64V26.95H328.343V17.95ZM363.588 27.22C365.328 34.06 367.188 40.81 369.168 47.47C371.208 54.07 373.428 60.64 375.828 67.18L367.458 70.24C366.798 68.56 366.168 66.91 365.568 65.29C365.028 63.61 364.458 61.93 363.858 60.25C362.538 60.25 361.218 60.25 359.898 60.25C358.638 60.25 357.348 60.22 356.028 60.16L355.038 67.36L346.128 66.19L351.708 25.06L360.618 26.32L360.348 28.03L363.588 27.22ZM357.198 51.16C357.858 51.22 358.488 51.25 359.088 51.25C359.688 51.25 360.318 51.25 360.978 51.25C360.498 49.81 360.048 48.37 359.628 46.93C359.208 45.49 358.788 44.05 358.368 42.61L357.198 51.16Z" fill="#FE7201"/>
<path d="M51.5899 25.11H60.5899V65.79H51.5899V60.3C51.2899 59.64 50.9599 58.95 50.5999 58.23C50.2399 57.51 49.8799 56.79 49.5199 56.07L48.3499 53.64L47.1799 51.21C46.3399 49.65 45.5299 48.06 44.7499 46.44C43.9699 44.82 43.1599 43.2 42.3199 41.58C42.0799 41.1 41.8399 40.62 41.5999 40.14C41.3599 39.66 41.1199 39.18 40.8799 38.7V68.31H31.8799V15.21H40.8799V18.45C41.2399 19.23 41.5999 20.01 41.9599 20.79C42.3799 21.57 42.7699 22.35 43.1299 23.13L44.2999 25.56L45.5599 27.9C46.3399 29.52 47.1199 31.14 47.8999 32.76C48.6799 34.38 49.4899 35.97 50.3299 37.53C50.5699 38.01 50.7799 38.46 50.9599 38.88C51.1999 39.24 51.4099 39.63 51.5899 40.05V25.11ZM65.5174 17.19H74.5174V65.79H65.5174V17.19ZM101.067 70.02C98.9674 70.08 96.8674 70.17 94.7674 70.29C92.6674 70.41 90.5674 70.62 88.4674 70.92V74.25H79.4674V15.75H88.4674V61.92C90.5074 61.62 92.5474 61.41 94.5874 61.29C96.6274 61.17 98.6974 61.08 100.797 61.02L101.067 70.02ZM123.446 23.22C125.186 30.06 127.046 36.81 129.026 43.47C131.066 50.07 133.286 56.64 135.686 63.18L127.316 66.24C126.656 64.56 126.026 62.91 125.426 61.29C124.886 59.61 124.316 57.93 123.716 56.25C122.396 56.25 121.076 56.25 119.756 56.25C118.496 56.25 117.206 56.22 115.886 56.16L114.896 63.36L105.986 62.19L111.566 21.06L120.476 22.32L120.206 24.03L123.446 23.22ZM117.056 47.16C117.716 47.22 118.346 47.25 118.946 47.25C119.546 47.25 120.176 47.25 120.836 47.25C120.356 45.81 119.906 44.37 119.486 42.93C119.066 41.49 118.646 40.05 118.226 38.61L117.056 47.16ZM140.678 17.19H149.678V65.79H140.678V17.19ZM188.126 42.48C189.506 44.22 190.796 45.96 191.996 47.7C193.196 49.44 194.396 51.18 195.596 52.92C197.156 55.26 198.656 57.63 200.096 60.03C201.536 62.37 202.946 64.71 204.326 67.05L196.586 71.64C195.206 69.3 193.796 66.99 192.356 64.71C190.976 62.43 189.566 60.15 188.126 57.87C187.466 56.97 186.836 56.07 186.236 55.17C185.636 54.21 185.006 53.28 184.346 52.38V72.45H175.346V15.75H184.346V32.22L193.436 19.35L200.816 24.57L188.126 42.48ZM207.577 17.19H216.577V65.79H207.577V17.19ZM241.237 25.11H250.237V65.79H241.237V60.3C240.937 59.64 240.607 58.95 240.247 58.23C239.887 57.51 239.527 56.79 239.167 56.07L237.997 53.64L236.827 51.21C235.987 49.65 235.177 48.06 234.397 46.44C233.617 44.82 232.807 43.2 231.967 41.58C231.727 41.1 231.487 40.62 231.247 40.14C231.007 39.66 230.767 39.18 230.527 38.7V68.31H221.527V15.21H230.527V18.45C230.887 19.23 231.247 20.01 231.607 20.79C232.027 21.57 232.417 22.35 232.777 23.13L233.947 25.56L235.207 27.9C235.987 29.52 236.767 31.14 237.547 32.76C238.327 34.38 239.137 35.97 239.977 37.53C240.217 38.01 240.427 38.46 240.607 38.88C240.847 39.24 241.057 39.63 241.237 40.05V25.11ZM264.164 51.48C268.004 51.48 271.844 51.39 275.684 51.21L276.044 60.21C269.504 60.45 262.934 60.54 256.334 60.48V59.22H255.164V25.74H255.974L255.884 25.11C259.004 24.69 262.124 24.42 265.244 24.3C268.364 24.12 271.484 24.09 274.604 24.21L274.424 33.21C272.684 33.15 270.974 33.15 269.294 33.21C267.614 33.21 265.904 33.27 264.164 33.39V38.79H265.514L271.184 38.61L271.364 47.61L265.784 47.79H264.164V51.48ZM302.76 22.59C303.42 23.55 303.93 24.57 304.29 25.65C304.65 26.73 304.89 27.84 305.01 28.98C305.19 29.94 305.22 31.08 305.1 32.4C304.98 33.48 304.74 34.56 304.38 35.64C304.08 36.72 303.63 37.74 303.03 38.7C302.49 39.66 301.89 40.56 301.23 41.4C300.51 42.24 299.73 43.02 298.89 43.74L298.62 44.01L298.26 44.19L297.9 44.46L297.63 44.73C298.95 47.01 300.21 49.35 301.41 51.75C302.61 54.09 303.81 56.49 305.01 58.95L297 62.82C295.86 60.54 294.69 58.32 293.49 56.16C292.35 53.94 291.18 51.72 289.98 49.5V68.13H280.98V13.59H288.81L289.17 12.87L293.49 15.3L295.56 16.47C295.98 16.65 296.37 16.86 296.73 17.1C297.09 17.28 297.51 17.52 297.99 17.82C298.41 18.12 298.83 18.42 299.25 18.72C299.67 19.02 300.09 19.38 300.51 19.8C301.41 20.64 302.16 21.57 302.76 22.59ZM293.04 25.38C292.74 25.2 292.44 25.02 292.14 24.84C291.9 24.66 291.6 24.48 291.24 24.3L289.98 23.58V38.79C290.28 38.61 290.58 38.43 290.88 38.25C291.18 38.07 291.48 37.89 291.78 37.71C291.9 37.59 292.02 37.53 292.14 37.53C292.32 37.47 292.47 37.38 292.59 37.26L292.77 37.08L292.86 36.99L293.04 36.9L293.22 36.72C293.4 36.6 293.58 36.45 293.76 36.27C294 36.09 294.18 35.88 294.3 35.64C295.08 34.8 295.59 33.9 295.83 32.94C296.01 32.46 296.1 31.98 296.1 31.5C296.22 31.02 296.22 30.54 296.1 30.06C296.04 29.58 295.92 29.13 295.74 28.71C295.62 28.23 295.44 27.78 295.2 27.36C294.84 26.88 294.54 26.55 294.3 26.37C294.18 26.19 294 26.04 293.76 25.92C293.58 25.74 293.34 25.56 293.04 25.38ZM325.372 13.95H339.142V35.64V39.96V40.5V41.13V42.21V43.38V43.92L339.052 44.46C339.052 46.02 338.962 47.58 338.782 49.14C338.602 50.58 338.332 52.14 337.972 53.82C337.792 54.66 337.582 55.47 337.342 56.25C337.102 57.03 336.832 57.84 336.532 58.68L336.352 59.22C336.292 59.4 336.202 59.61 336.082 59.85C336.022 60.03 335.932 60.24 335.812 60.48L335.452 61.11L335.272 61.38L335.092 61.65L334.822 62.28C334.702 62.4 334.612 62.52 334.552 62.64C334.552 62.7 334.492 62.79 334.372 62.91C334.312 63.03 334.252 63.12 334.192 63.18C334.132 63.24 334.072 63.33 334.012 63.45L333.562 64.08L333.292 64.35L333.022 64.62C332.842 64.86 332.512 65.22 332.032 65.7C331.792 65.94 331.582 66.12 331.402 66.24L331.132 66.51L330.862 66.69C330.742 66.81 330.622 66.9 330.502 66.96C330.442 67.02 330.352 67.08 330.232 67.14C330.112 67.26 329.992 67.35 329.872 67.41C329.812 67.41 329.722 67.47 329.602 67.59L329.422 67.68C329.302 67.74 329.242 67.77 329.242 67.77L328.882 67.95C328.642 68.13 328.402 68.25 328.162 68.31C328.042 68.37 327.922 68.43 327.802 68.49C327.682 68.55 327.562 68.61 327.442 68.67C327.322 68.73 327.082 68.82 326.722 68.94L326.362 69.03L326.002 69.12C325.882 69.18 325.642 69.27 325.282 69.39L324.562 69.48C324.502 69.54 324.382 69.57 324.202 69.57L323.842 69.66C323.722 69.66 323.602 69.69 323.482 69.75C323.362 69.75 323.242 69.75 323.122 69.75L322.402 69.84H322.132H321.772H321.052H320.962H320.872H320.602H320.062C319.942 69.84 319.852 69.84 319.792 69.84C319.732 69.78 319.672 69.75 319.612 69.75C319.492 69.75 319.402 69.75 319.342 69.75C319.282 69.69 319.192 69.66 319.072 69.66H318.802L318.532 69.57C318.472 69.51 318.412 69.48 318.352 69.48C318.292 69.48 318.202 69.45 318.082 69.39C317.962 69.33 317.812 69.3 317.632 69.3C317.452 69.24 317.302 69.18 317.182 69.12C316.522 68.82 315.952 68.52 315.472 68.22C314.992 67.86 314.542 67.5 314.122 67.14C313.642 66.72 313.222 66.33 312.862 65.97C312.562 65.55 312.262 65.1 311.962 64.62C311.662 64.2 311.392 63.78 311.152 63.36C310.972 62.94 310.762 62.49 310.522 62.01C310.342 61.53 310.162 61.08 309.982 60.66C309.862 60.24 309.742 59.79 309.622 59.31C309.202 57.63 308.992 55.83 308.992 53.91H317.992C317.992 55.11 318.112 56.16 318.352 57.06C318.652 58.14 319.012 58.98 319.432 59.58C319.792 60 320.032 60.27 320.152 60.39C320.332 60.63 320.512 60.75 320.692 60.75C320.752 60.81 320.782 60.84 320.782 60.84H320.872H320.962H321.412H321.592H321.772L322.132 60.75H322.492H322.672C322.732 60.69 322.792 60.66 322.852 60.66C322.972 60.66 323.062 60.63 323.122 60.57L323.482 60.48H323.662L323.752 60.39C323.872 60.39 323.962 60.36 324.022 60.3C324.082 60.3 324.142 60.3 324.202 60.3C324.262 60.24 324.322 60.21 324.382 60.21C324.442 60.15 324.472 60.12 324.472 60.12C324.532 60.12 324.592 60.09 324.652 60.03L324.742 59.94H324.832C324.952 59.82 325.042 59.76 325.102 59.76C325.222 59.64 325.312 59.58 325.372 59.58L325.462 59.49L325.642 59.4L325.822 59.13C325.882 59.13 325.972 59.07 326.092 58.95C326.152 58.89 326.182 58.86 326.182 58.86C326.182 58.8 326.212 58.74 326.272 58.68L326.362 58.59L326.542 58.41C326.542 58.35 326.602 58.26 326.722 58.14C326.842 58.02 326.902 57.93 326.902 57.87C327.022 57.75 327.112 57.63 327.172 57.51L327.352 57.24L327.442 57.06L327.532 56.88L327.712 56.52C327.712 56.4 327.772 56.28 327.892 56.16C327.892 56.04 327.952 55.92 328.072 55.8L328.162 55.35C328.642 54.27 328.972 53.13 329.152 51.93C329.272 51.27 329.392 50.64 329.512 50.04C329.632 49.44 329.722 48.81 329.782 48.15C329.902 47.49 329.962 46.83 329.962 46.17C330.022 45.45 330.082 44.76 330.142 44.1V43.65V43.11V42.12V41.04V40.77V40.5V39.96V35.64V22.95H325.372V13.95ZM360.617 23.22C362.357 30.06 364.217 36.81 366.197 43.47C368.237 50.07 370.457 56.64 372.857 63.18L364.487 66.24C363.827 64.56 363.197 62.91 362.597 61.29C362.057 59.61 361.487 57.93 360.887 56.25C359.567 56.25 358.247 56.25 356.927 56.25C355.667 56.25 354.377 56.22 353.057 56.16L352.067 63.36L343.157 62.19L348.737 21.06L357.647 22.32L357.377 24.03L360.617 23.22ZM354.227 47.16C354.887 47.22 355.517 47.25 356.117 47.25C356.717 47.25 357.347 47.25 358.007 47.25C357.527 45.81 357.077 44.37 356.657 42.93C356.237 41.49 355.817 40.05 355.397 38.61L354.227 47.16Z" fill="#BCDB37"/>
<line x1="111.116" y1="104.5" x2="301.261" y2="104.5" stroke="#FE7201" stroke-width="3"/>
<line x1="170.536" y1="104" x2="241.84" y2="104" stroke="#BCDB37" stroke-width="8"/>
</svg>
