<svg width="159" height="54" viewBox="0 0 159 54" fill="none" xmlns="http://www.w3.org/2000/svg">
<g opacity="0.4">
<rect x="2.50269" y="19.0596" width="154" height="34" rx="17" transform="rotate(-3 2.50269 19.0596)" fill="#FE7201"/>
<path d="M29.8001 35.3732L32.5768 38.6003C32.6621 38.7 32.7167 38.8253 32.7241 38.9651C32.7417 39.3006 32.4803 39.5867 32.1407 39.6045C31.941 39.615 31.7562 39.5285 31.6368 39.3906L28.3261 35.5265L25.6737 35.6655L25.864 39.2966C25.882 39.6401 25.6137 39.9466 25.2742 39.9643C24.9346 39.9821 24.6357 39.7054 24.6177 39.3619L24.1124 29.7191C24.09 29.2917 24.3057 29.0521 24.7331 29.0297L28.48 28.8333C31.1483 28.6935 32.6474 30.165 32.741 31.9506C32.8226 33.5084 31.8201 34.9389 29.8001 35.3732ZM25.384 30.1371L25.6141 34.5271L28.7697 34.3617C30.5553 34.2681 31.4553 33.3278 31.3868 32.0215C31.3186 30.7193 30.3252 29.8782 28.5397 29.9717L25.384 30.1371ZM39.9034 31.5712C40.0147 31.2489 40.2143 31.0823 40.4979 31.0674C40.9413 31.0442 41.1954 31.4594 41.0519 31.8555L38.3946 39.0084C37.4221 41.6228 36.8172 42.6159 35.4871 42.6856C35.1755 42.7019 34.9815 42.668 34.6768 42.5878C34.4374 42.5283 34.2508 42.3298 34.2374 42.0741C34.221 41.7626 34.4675 41.4973 34.7797 41.493C35.0416 41.5233 35.2237 41.5578 35.4753 41.5446C36.1065 41.5115 36.408 41.0752 37.1954 38.9791L33.6334 32.3084C33.5889 32.2226 33.5645 32.1397 33.5597 32.0479C33.5419 31.7083 33.8031 31.4183 34.1426 31.4005C34.3983 31.3871 34.6219 31.5276 34.7335 31.746L37.7798 37.5185L39.9034 31.5712ZM45.5673 30.7376C47.7284 30.6244 48.7859 31.4662 48.9012 33.6672L49.134 38.1091C49.1514 38.4406 48.898 38.7263 48.5664 38.7437C48.2389 38.7608 47.957 38.5032 47.9396 38.1717L47.8861 37.1491C47.4538 38.1491 46.4529 38.9225 45.1107 38.9928C43.6927 39.0672 42.3288 38.3415 42.2422 36.6878C42.1591 35.102 43.4825 34.1394 45.4398 34.0368C46.1389 34.0002 46.9123 34.0838 47.7378 34.321L47.71 33.7897C47.6336 32.3317 46.9183 31.7523 45.4004 31.8319C44.6214 31.8727 43.9774 32.1187 43.501 32.4281C43.3019 32.5267 43.1929 32.5884 43.0092 32.5981C42.7735 32.6104 42.5284 32.443 42.5119 32.1275C42.501 31.9197 42.6022 31.7102 42.9058 31.542C43.5187 31.1614 44.4449 30.7965 45.5673 30.7376ZM45.2754 38.0069C46.7573 37.9292 47.8697 36.8375 47.7931 35.3755L47.781 35.1438C47.0187 34.8914 46.2451 34.8037 45.6099 34.837C44.12 34.9151 43.3743 35.515 43.4286 36.5495C43.4828 37.5841 44.2807 38.059 45.2754 38.0069ZM55.0021 30.2432C56.5999 30.1594 58.0913 31.1027 58.1929 33.04L58.433 37.6217C58.4504 37.9533 58.201 38.2387 57.8694 38.2561C57.5379 38.2735 57.26 38.0157 57.2426 37.6841L57.0283 33.5937C56.9372 31.8561 55.8727 31.3391 54.7382 31.3986C53.5958 31.4584 52.3676 32.2518 52.4545 33.9095L52.6649 37.924C52.6823 38.2556 52.4329 38.541 52.1013 38.5584C51.7698 38.5758 51.4919 38.318 51.4745 37.9864L51.1147 31.1198C51.0973 30.7883 51.3467 30.5028 51.6783 30.4855C52.0098 30.4681 52.2877 30.7259 52.305 31.0575L52.3542 31.9962C52.5848 31.2751 53.4323 30.3255 55.0021 30.2432ZM74.6211 26.3471C75.0126 26.3265 75.3493 26.6374 75.3694 27.0208L75.8754 36.6756C75.8934 37.0191 75.6251 37.3256 75.2855 37.3434C74.946 37.3612 74.6471 37.0844 74.6291 36.7409L74.2041 28.632L70.7218 34.0297C70.5734 34.2537 70.3442 34.3899 70.0845 34.4035C69.8169 34.4176 69.5867 34.3055 69.4116 34.0983L65.3842 29.0943L65.8092 37.2031C65.8272 37.5467 65.5589 37.8531 65.2193 37.8709C64.8798 37.8887 64.5809 37.612 64.5629 37.2684L64.0569 27.6137C64.0366 27.2262 64.3392 26.8859 64.7307 26.8654C64.9903 26.8518 65.1885 26.9656 65.3216 27.1348L70.0079 32.9415L74.0578 26.681C74.1764 26.4985 74.3615 26.3607 74.6211 26.3471ZM78.9667 37.2185C78.4394 37.2462 78.023 36.8674 77.9954 36.3402C77.9683 35.8249 78.3425 35.3967 78.8697 35.3691C79.385 35.3421 79.8178 35.7279 79.8448 36.2432C79.8724 36.7705 79.4819 37.1915 78.9667 37.2185ZM92.0775 26.6419L86.4252 26.9381L86.6358 30.9566L91.9166 30.6798C92.2281 30.6635 92.501 30.9015 92.5177 31.2211C92.5345 31.5407 92.2878 31.8019 91.9762 31.8183L86.6955 32.095L86.9052 36.0975C86.9232 36.4411 86.6549 36.7475 86.3154 36.7653C85.9758 36.7831 85.677 36.5064 85.659 36.1628L85.1536 26.5201C85.1318 26.1046 85.3589 25.8524 85.7744 25.8306L92.0178 25.5034C92.3254 25.4873 92.602 25.7212 92.6187 26.0407C92.6355 26.3603 92.385 26.6258 92.0775 26.6419ZM94.4311 24.5678C94.9464 24.5408 95.3794 24.9307 95.4064 25.446C95.4341 25.9733 95.0434 26.3903 94.5281 26.4173C94.0048 26.4447 93.5846 26.0702 93.557 25.5429C93.53 25.0276 93.9079 24.5953 94.4311 24.5678ZM94.6193 28.235C94.9509 28.2177 95.2287 28.4755 95.2461 28.807L95.606 35.6736C95.6234 36.0051 95.374 36.2906 95.0424 36.3079C94.7109 36.3253 94.433 36.0675 94.4156 35.736L94.0557 28.8694C94.0384 28.5378 94.2878 28.2524 94.6193 28.235ZM101.457 27.8687C101.956 27.8425 102.232 28.1365 102.252 28.5279C102.273 28.9194 101.965 29.3081 101.494 29.2647C99.803 29.1009 98.8684 30.4517 98.9639 32.2732L99.1324 35.4888C99.1498 35.8203 98.9004 36.1058 98.5688 36.1231C98.2373 36.1405 97.9594 35.8827 97.942 35.5512L97.5822 28.6846C97.5648 28.353 97.8142 28.0676 98.1457 28.0502C98.4773 28.0328 98.7552 28.2907 98.7725 28.6222L98.8487 30.0762C99.2015 28.9362 100.2 27.8825 101.457 27.8687ZM109.671 23.2685C110.003 23.2511 110.281 23.5089 110.298 23.8364L110.876 34.8733C110.894 35.2048 110.644 35.4903 110.313 35.5077C109.981 35.525 109.703 35.2672 109.686 34.9357L109.632 33.9091C109.091 34.9789 108.099 35.6918 106.737 35.7631C104.44 35.8835 102.777 34.1762 102.655 31.8594C102.534 29.5426 104.01 27.6748 106.307 27.5544C107.669 27.483 108.731 28.0923 109.38 29.1037L109.108 23.8988C109.09 23.5713 109.34 23.2858 109.671 23.2685ZM106.9 34.6651C108.514 34.5805 109.652 33.143 109.566 31.4973C109.48 29.8515 108.197 28.5408 106.584 28.6254C104.93 28.7121 103.813 30.0964 103.902 31.7941C103.99 33.4878 105.246 34.7518 106.9 34.6651ZM116.142 27.039C118.303 26.9257 119.361 27.7675 119.476 29.9685L119.709 34.4104C119.726 34.7419 119.473 35.0276 119.141 35.045C118.814 35.0621 118.532 34.8045 118.515 34.473L118.461 33.4504C118.029 34.4504 117.028 35.2238 115.686 35.2942C114.268 35.3685 112.904 34.6429 112.817 32.9891C112.734 31.4033 114.058 30.4407 116.015 30.3382C116.714 30.3015 117.487 30.3852 118.313 30.6223L118.285 30.091C118.209 28.633 117.493 28.0536 115.975 28.1332C115.196 28.174 114.552 28.4201 114.076 28.7294C113.877 28.828 113.768 28.8898 113.584 28.8994C113.349 28.9117 113.103 28.7443 113.087 28.4288C113.076 28.2211 113.177 28.0115 113.481 27.8434C114.094 27.4628 115.02 27.0978 116.142 27.039ZM115.85 34.3082C117.332 34.2305 118.445 33.1388 118.368 31.6768L118.356 31.4451C117.594 31.1927 116.82 31.1051 116.185 31.1383C114.695 31.2164 113.949 31.8163 114.004 32.8509C114.058 33.8854 114.856 34.3603 115.85 34.3082ZM127.81 26.4956C128.141 26.4782 128.419 26.736 128.436 27.0676L128.796 33.9342C128.814 34.2657 128.564 34.5511 128.233 34.5685C127.901 34.5859 127.623 34.3281 127.606 33.9965L127.557 33.0538C127.326 33.7789 126.559 34.7243 125.013 34.8054C123.443 34.8876 122.031 33.9402 121.93 32.0029L121.69 27.4212C121.672 27.0896 121.922 26.8042 122.253 26.7868C122.585 26.7694 122.863 27.0272 122.88 27.3588L123.094 31.4492C123.185 33.1868 124.17 33.708 125.281 33.6498C126.395 33.5914 127.543 32.8022 127.456 31.1445L127.246 27.13C127.229 26.7984 127.478 26.513 127.81 26.4956ZM131.873 28.4897C131.966 30.2552 136.728 28.8 136.886 31.8119C136.973 33.4736 135.6 34.2505 133.711 34.3495C132.708 34.4021 131.803 34.2612 131.054 33.948C130.846 33.8708 130.695 33.6824 130.684 33.4547C130.667 33.1392 130.886 32.8834 131.222 32.8777C131.927 33.0211 132.591 33.3187 133.698 33.2607C134.836 33.2011 135.719 32.8624 135.674 31.9876C135.573 30.0702 130.826 31.5126 130.674 28.6046C130.595 27.0947 131.89 26.2136 133.632 26.1224C134.507 26.0765 135.319 26.2182 135.973 26.4723C136.243 26.5743 136.396 26.7346 136.41 27.0142C136.427 27.3258 136.206 27.5536 135.87 27.5632C135.229 27.4766 134.619 27.1561 133.689 27.2049C132.37 27.274 131.839 27.8385 131.873 28.4897Z" fill="#FFFDFD"/>
</g>
<rect x="2.70837" y="11" width="154" height="34" rx="17" transform="rotate(3 2.70837 11)" fill="#FE7201"/>
<path d="M27.128 28.3898C27.5754 28.4133 27.9723 28.3806 28.3187 28.292C28.6708 28.1983 28.9665 28.0589 29.2058 27.8738C29.4508 27.6837 29.6391 27.4533 29.7708 27.1825C29.9025 26.9117 29.9771 26.6085 29.9947 26.2729C30.0304 25.5912 29.8337 25.0655 29.4044 24.6959C28.9752 24.3262 28.3132 24.118 27.4184 24.0711L25.7247 23.9823L25.4982 28.3044L27.128 28.3898ZM32.1073 34.5709L30.7332 34.4989C30.4509 34.4841 30.2489 34.364 30.1272 34.1387L27.3697 29.8925C27.2858 29.7599 27.192 29.6642 27.0883 29.6054C26.9902 29.5415 26.8319 29.5038 26.6136 29.4924L25.4392 29.4308L25.1888 34.2083L23.6469 34.1275L24.2469 22.6792L27.4825 22.8488C28.2068 22.8867 28.8287 22.9941 29.3482 23.1708C29.8679 23.3423 30.2909 23.5754 30.6173 23.8702C30.949 24.1653 31.187 24.5143 31.3315 24.917C31.4762 25.3145 31.5359 25.7556 31.5105 26.2402C31.4893 26.645 31.4055 27.0198 31.2593 27.3646C31.1131 27.7094 30.91 28.0166 30.6502 28.286C30.3961 28.5504 30.088 28.7719 29.7262 28.9506C29.3697 29.1295 28.9677 29.2579 28.5204 29.336C28.7116 29.4581 28.8735 29.6295 29.0061 29.8501L32.1073 34.5709ZM40.4702 26.894L35.407 37.1391C35.3535 37.2431 35.2878 37.3251 35.2099 37.3851C35.1373 37.4454 35.0265 37.4716 34.8773 37.4638L33.8228 37.4085L35.4691 34.2744L32.5291 26.4779L33.7594 26.5423C33.8819 26.5488 33.9761 26.5857 34.042 26.6533C34.1135 26.7158 34.1606 26.785 34.1833 26.861L36.0812 32.0714C36.1547 32.2996 36.2143 32.5377 36.2601 32.7858C36.3477 32.5393 36.44 32.3065 36.537 32.0873L38.9048 27.1084C38.9412 27.0249 38.9981 26.9584 39.0755 26.9091C39.1584 26.8547 39.2479 26.83 39.3437 26.835L40.4702 26.894ZM45.7232 31.6314C45.067 31.6184 44.5049 31.6424 44.0371 31.7033C43.5749 31.7592 43.1938 31.846 42.8939 31.9638C42.5993 32.0819 42.3807 32.228 42.2381 32.4021C42.1008 32.5765 42.0262 32.7755 42.0145 32.9992C42.0034 33.2123 42.0283 33.3978 42.0895 33.5559C42.1506 33.714 42.2371 33.8467 42.349 33.954C42.4665 34.0563 42.6039 34.1356 42.7611 34.1919C42.924 34.2432 43.0986 34.2737 43.285 34.2835C43.5354 34.2966 43.7656 34.2846 43.9759 34.2476C44.1864 34.2052 44.3847 34.1408 44.5708 34.0545C44.7622 33.9684 44.944 33.8631 45.1161 33.7386C45.2935 33.6143 45.4665 33.4712 45.6353 33.3091L45.7232 31.6314ZM41.3028 28.0832C41.7728 27.6753 42.2717 27.3783 42.7995 27.1923C43.3273 27.0064 43.9054 26.9299 44.5339 26.9628C44.9866 26.9865 45.3848 27.0822 45.7285 27.2497C46.0722 27.4173 46.3569 27.6405 46.5826 27.9193C46.8084 28.1982 46.9726 28.5299 47.0752 28.9145C47.1779 29.299 47.2174 29.7177 47.1937 30.1704L46.9224 35.3473L46.2912 35.3142C46.1527 35.307 46.0473 35.2801 45.975 35.2336C45.903 35.1817 45.8491 35.0881 45.8135 34.9527L45.6939 34.1774C45.4705 34.3633 45.2536 34.5282 45.0431 34.672C44.8329 34.8105 44.6132 34.9272 44.3839 35.022C44.1549 35.1115 43.9112 35.1761 43.6527 35.216C43.3994 35.2615 43.1182 35.2761 42.8093 35.2599C42.4951 35.2434 42.2017 35.1853 41.9292 35.0856C41.657 34.9806 41.4216 34.8347 41.2231 34.6481C41.03 34.4617 40.8791 34.2322 40.7706 33.9594C40.6676 33.6817 40.6258 33.359 40.645 32.9915C40.6618 32.672 40.7657 32.3703 40.9568 32.0866C41.1482 31.7976 41.447 31.5489 41.8531 31.3405C42.2592 31.1321 42.783 30.9727 43.4243 30.8621C44.0659 30.7462 44.848 30.7017 45.7705 30.7287L45.8036 30.0975C45.8365 29.4691 45.7255 28.9879 45.4707 28.6541C45.2161 28.315 44.8278 28.1318 44.3058 28.1044C43.9543 28.086 43.6563 28.1158 43.4119 28.1938C43.1731 28.2667 42.9629 28.3545 42.7813 28.4571C42.6053 28.5547 42.451 28.6454 42.3184 28.7293C42.1914 28.8081 42.0667 28.8443 41.9442 28.8378C41.8483 28.8328 41.767 28.8045 41.7003 28.753C41.6339 28.6961 41.5786 28.6291 41.5346 28.552L41.3028 28.0832ZM50.7932 28.6127C50.9793 28.4248 51.1751 28.2561 51.3805 28.1067C51.586 27.9572 51.8008 27.8323 52.025 27.7319C52.2549 27.6265 52.4938 27.5509 52.7419 27.5051C52.9956 27.4543 53.2662 27.4365 53.5538 27.4515C53.9959 27.4747 54.3808 27.5696 54.7085 27.7364C55.0418 27.898 55.3132 28.1205 55.5227 28.4039C55.7377 28.6822 55.8939 29.0135 55.9913 29.3978C56.0886 29.7821 56.1253 30.2032 56.1013 30.6613L55.8313 35.8142L54.4012 35.7392L54.6713 30.5863C54.7034 29.9738 54.5871 29.4924 54.3224 29.1421C54.0633 28.7867 53.6488 28.5941 53.0789 28.5642C52.6582 28.5422 52.2587 28.6227 51.8806 28.8058C51.5079 28.9892 51.1579 29.2459 50.8309 29.5759L50.5185 35.5358L49.0885 35.4608L49.5126 27.3679L50.3675 27.4127C50.5699 27.4233 50.6899 27.5284 50.7275 27.728L50.7932 28.6127ZM74.9335 25.3356L74.3335 36.7839L72.9754 36.7127L73.4162 28.3002C73.4221 28.1884 73.431 28.0687 73.4431 27.9411C73.4604 27.8139 73.4779 27.6839 73.4955 27.5513L69.1898 34.5035C69.0547 34.7368 68.862 34.8468 68.6117 34.8337L68.388 34.822C68.1377 34.8089 67.9576 34.6793 67.8476 34.4332L64.2139 27.0329C64.2311 27.3168 64.2334 27.5786 64.2208 27.8183L63.78 36.2308L62.4218 36.1596L63.0218 24.7113L64.1642 24.7712C64.3027 24.7784 64.4085 24.7973 64.4817 24.8279C64.5549 24.8584 64.6229 24.9367 64.6857 25.0629L68.271 32.3164C68.3282 32.4476 68.3825 32.584 68.4338 32.7255C68.4905 32.8674 68.5416 33.0116 68.5874 33.1582C68.6482 33.0171 68.7115 32.8789 68.7773 32.7435C68.8435 32.6028 68.9145 32.4703 68.9904 32.3461L73.242 25.5113C73.3123 25.3921 73.3854 25.3212 73.4614 25.2985C73.5427 25.276 73.6526 25.2684 73.791 25.2757L74.9335 25.3356ZM76.7317 36.0283C76.7389 35.8899 76.7698 35.7606 76.8241 35.6406C76.8838 35.5209 76.9586 35.418 77.0486 35.332C77.1439 35.2462 77.2541 35.1798 77.3794 35.133C77.5047 35.0862 77.6366 35.0664 77.7751 35.0736C77.9136 35.0809 78.0427 35.1144 78.1624 35.174C78.2821 35.2337 78.3848 35.3112 78.4706 35.4065C78.5564 35.5018 78.6227 35.6121 78.6696 35.7374C78.7164 35.8626 78.7362 35.9945 78.7289 36.133C78.7214 36.2768 78.6878 36.4086 78.6281 36.5283C78.5687 36.6426 78.4914 36.7427 78.3961 36.8285C78.3008 36.9143 78.1907 36.978 78.0656 37.0195C77.9404 37.0663 77.8085 37.0861 77.67 37.0789C77.5315 37.0716 77.4024 37.0382 77.2827 36.9785C77.1627 36.9241 77.0598 36.8493 76.974 36.754C76.8936 36.659 76.8298 36.5515 76.7827 36.4315C76.7411 36.3065 76.7242 36.1721 76.7317 36.0283ZM87.2088 27.2446L86.999 31.2471L91.7045 31.4937L91.6384 32.756L86.9328 32.5094L86.6749 37.4306L85.1251 37.3494L85.725 25.9011L92.7794 26.2708L92.7132 27.5331L87.2088 27.2446ZM95.7189 29.7895L95.2947 37.8824L93.8727 37.8079L94.2968 29.715L95.7189 29.7895ZM96.1556 27.2649C96.1483 27.4034 96.1122 27.5323 96.0472 27.6517C95.9878 27.7661 95.9076 27.8687 95.8067 27.9596C95.7115 28.0454 95.5985 28.1116 95.4679 28.1581C95.3426 28.205 95.2107 28.2248 95.0722 28.2175C94.9338 28.2102 94.8047 28.1768 94.685 28.1171C94.5706 28.0577 94.4705 27.9803 94.3847 27.8851C94.2992 27.7844 94.2329 27.6742 94.1857 27.5542C94.1389 27.4289 94.1191 27.297 94.1264 27.1585C94.1336 27.0201 94.1671 26.891 94.2268 26.7713C94.2867 26.6462 94.3644 26.5408 94.4596 26.455C94.5552 26.3639 94.663 26.2948 94.7829 26.2477C94.9082 26.2008 95.0401 26.181 95.1786 26.1883C95.3171 26.1955 95.4462 26.229 95.5659 26.2887C95.6909 26.3486 95.7962 26.4289 95.8817 26.5295C95.9728 26.6251 96.0417 26.7382 96.0882 26.8688C96.1404 26.9944 96.1628 27.1264 96.1556 27.2649ZM99.3205 31.6045C99.6052 31.064 99.9421 30.649 100.331 30.3597C100.72 30.065 101.184 29.9317 101.722 29.9599C101.892 29.9688 102.054 29.996 102.206 30.0414C102.364 30.087 102.502 30.153 102.621 30.2393L102.461 31.2964C102.422 31.4279 102.339 31.4903 102.211 31.4836C102.136 31.4797 102.028 31.458 101.886 31.4185C101.744 31.379 101.582 31.3545 101.401 31.345C101.145 31.3316 100.914 31.3569 100.708 31.4208C100.507 31.4851 100.323 31.5876 100.155 31.7283C99.9932 31.864 99.8426 32.0377 99.7033 32.2494C99.5697 32.456 99.445 32.6951 99.3293 32.9668L99.0613 38.0798L97.6313 38.0048L98.0554 29.9119L98.8703 29.9547C99.0247 29.9627 99.1297 29.9976 99.1852 30.0593C99.2407 30.1209 99.2754 30.2242 99.2892 30.3691L99.3205 31.6045ZM108.735 32.4023C108.488 32.0315 108.213 31.7688 107.911 31.6141C107.61 31.4541 107.268 31.3641 106.884 31.344C106.133 31.3046 105.541 31.5433 105.108 32.06C104.675 32.5767 104.433 33.3331 104.381 34.329C104.353 34.8563 104.374 35.3114 104.445 35.6943C104.516 36.0718 104.633 36.3877 104.796 36.6419C104.959 36.8908 105.166 37.0779 105.416 37.2031C105.665 37.3284 105.953 37.3995 106.278 37.4165C106.746 37.4411 107.159 37.3559 107.517 37.161C107.879 36.9664 108.217 36.6824 108.531 36.3089L108.735 32.4023ZM110.451 26.8765L109.834 38.6444L108.987 38.6C108.785 38.5894 108.662 38.4841 108.619 38.2843L108.543 37.2949C108.175 37.6922 107.763 38.0071 107.308 38.2396C106.852 38.4721 106.334 38.5731 105.754 38.5427C105.291 38.5184 104.874 38.4085 104.505 38.2129C104.137 38.012 103.828 37.7315 103.58 37.3713C103.332 37.0112 103.15 36.569 103.033 36.0449C102.916 35.5207 102.875 34.9231 102.911 34.252C102.942 33.6555 103.051 33.1058 103.237 32.6028C103.424 32.0946 103.677 31.6592 103.995 31.2967C104.313 30.9342 104.693 30.6577 105.136 30.4673C105.584 30.2718 106.08 30.1883 106.623 30.2167C107.118 30.2427 107.537 30.3501 107.88 30.539C108.228 30.7228 108.533 30.9711 108.794 31.2838L109.029 26.802L110.451 26.8765ZM116.657 35.3489C116.001 35.3359 115.439 35.3599 114.971 35.4208C114.509 35.4767 114.128 35.5635 113.828 35.6813C113.533 35.7994 113.315 35.9455 113.172 36.1196C113.035 36.294 112.96 36.493 112.948 36.7167C112.937 36.9298 112.962 37.1153 113.023 37.2734C113.085 37.4315 113.171 37.5642 113.283 37.6715C113.4 37.7738 113.538 37.8531 113.695 37.9094C113.858 37.9607 114.033 37.9912 114.219 38.001C114.469 38.0141 114.7 38.0021 114.91 37.9651C115.12 37.9227 115.319 37.8583 115.505 37.7719C115.696 37.6858 115.878 37.5805 116.05 37.456C116.227 37.3318 116.4 37.1887 116.569 37.0266L116.657 35.3489ZM112.237 31.8007C112.707 31.3928 113.206 31.0958 113.733 30.9098C114.261 30.7239 114.839 30.6474 115.468 30.6803C115.921 30.704 116.319 30.7997 116.662 30.9672C117.006 31.1348 117.291 31.358 117.517 31.6368C117.742 31.9157 117.906 32.2474 118.009 32.632C118.112 33.0165 118.151 33.4352 118.128 33.8879L117.856 39.0648L117.225 39.0317C117.087 39.0245 116.981 38.9976 116.909 38.951C116.837 38.8992 116.783 38.8056 116.747 38.6702L116.628 37.8949C116.404 38.0808 116.188 38.2457 115.977 38.3895C115.767 38.528 115.547 38.6447 115.318 38.7395C115.089 38.829 114.845 38.8936 114.587 38.9335C114.333 38.979 114.052 38.9936 113.743 38.9774C113.429 38.9609 113.136 38.9028 112.863 38.8031C112.591 38.698 112.356 38.5522 112.157 38.3656C111.964 38.1792 111.813 37.9496 111.704 37.6769C111.602 37.3992 111.56 37.0765 111.579 36.709C111.596 36.3895 111.7 36.0878 111.891 35.8041C112.082 35.5151 112.381 35.2664 112.787 35.058C113.193 34.8496 113.717 34.6902 114.358 34.5796C115 34.4637 115.782 34.4192 116.704 34.4462L116.737 33.815C116.77 33.1866 116.659 32.7054 116.405 32.3716C116.15 32.0325 115.762 31.8493 115.24 31.8219C114.888 31.8035 114.59 31.8333 114.346 31.9113C114.107 31.9842 113.897 32.072 113.715 32.1746C113.539 32.2722 113.385 32.3629 113.252 32.4468C113.125 32.5256 113.001 32.5617 112.878 32.5553C112.782 32.5503 112.701 32.522 112.634 32.4704C112.568 32.4136 112.513 32.3466 112.469 32.2695L112.237 31.8007ZM127.101 31.4342L126.677 39.5271L125.83 39.4827C125.628 39.4721 125.505 39.3669 125.462 39.167L125.396 38.2903C125.024 38.6607 124.614 38.9543 124.164 39.1711C123.715 39.3825 123.209 39.4735 122.644 39.4439C122.202 39.4207 121.814 39.3283 121.481 39.1666C121.153 38.9999 120.882 38.7774 120.667 38.4991C120.452 38.2208 120.296 37.8895 120.198 37.5052C120.106 37.1212 120.072 36.7002 120.096 36.2421L120.367 31.0812L121.789 31.1558L121.518 36.3167C121.486 36.9292 121.6 37.4104 121.859 37.7605C122.124 38.1108 122.544 38.3011 123.119 38.3312C123.54 38.3533 123.936 38.2752 124.309 38.0972C124.687 37.914 125.04 37.6548 125.367 37.3195L125.679 31.3597L127.101 31.4342ZM134 33.1335C133.93 33.2474 133.828 33.3008 133.695 33.2938C133.615 33.2896 133.526 33.2556 133.428 33.1917C133.33 33.1278 133.208 33.0573 133.063 32.9803C132.923 32.8982 132.753 32.8225 132.554 32.7533C132.355 32.6788 132.117 32.6343 131.84 32.6198C131.6 32.6072 131.383 32.6279 131.188 32.6817C130.993 32.7303 130.823 32.8042 130.679 32.9034C130.541 33.003 130.43 33.1227 130.348 33.2626C130.272 33.3975 130.229 33.5474 130.22 33.7125C130.209 33.9202 130.259 34.0964 130.369 34.241C130.484 34.3859 130.638 34.5141 130.829 34.6257C131.021 34.7372 131.24 34.8394 131.486 34.9325C131.733 35.0201 131.984 35.1161 132.24 35.2203C132.502 35.3195 132.755 35.4289 133 35.5485C133.245 35.6682 133.461 35.813 133.65 35.9832C133.839 36.1533 133.986 36.3586 134.091 36.599C134.201 36.8345 134.248 37.1146 134.231 37.4395C134.211 37.8124 134.127 38.1551 133.977 38.4676C133.827 38.7749 133.616 39.0389 133.342 39.2595C133.069 39.4749 132.74 39.6392 132.355 39.7525C131.97 39.8659 131.53 39.9096 131.034 39.8836C130.47 39.854 129.963 39.7367 129.515 39.5316C129.067 39.3212 128.69 39.0638 128.386 38.7594L128.75 38.2338C128.796 38.1668 128.849 38.1161 128.91 38.0819C128.97 38.0477 129.046 38.033 129.136 38.0377C129.232 38.0428 129.332 38.0853 129.434 38.1655C129.537 38.2456 129.66 38.3349 129.805 38.4333C129.954 38.5319 130.136 38.6242 130.351 38.7102C130.565 38.7962 130.835 38.8477 131.16 38.8648C131.437 38.8793 131.681 38.8574 131.892 38.799C132.104 38.7353 132.282 38.6459 132.427 38.5306C132.572 38.4154 132.681 38.2796 132.753 38.1231C132.831 37.967 132.874 37.7984 132.884 37.6173C132.895 37.3936 132.844 37.2066 132.729 37.0564C132.619 36.9011 132.469 36.7677 132.277 36.6562C132.086 36.5394 131.864 36.437 131.612 36.349C131.366 36.256 131.112 36.1599 130.85 36.0607C130.594 35.9618 130.34 35.8524 130.09 35.7325C129.846 35.6075 129.63 35.4573 129.441 35.2819C129.253 35.1065 129.104 34.8957 128.994 34.6496C128.889 34.3985 128.846 34.0998 128.864 33.7536C128.88 33.4447 128.96 33.1525 129.103 32.8769C129.245 32.596 129.445 32.3554 129.701 32.1552C129.958 31.9497 130.268 31.7924 130.631 31.6833C130.995 31.5741 131.405 31.5316 131.863 31.5556C132.396 31.5835 132.868 31.6937 133.28 31.8862C133.698 32.0736 134.053 32.3219 134.347 32.631L134 33.1335Z" fill="#FFFDFD"/>
<line x1="80" x2="80" y2="15" stroke="#929292"/>
</svg>
