<svg width="220" height="164" viewBox="0 0 220 164" fill="none" xmlns="http://www.w3.org/2000/svg">
<path d="M89.1811 39.85L68.4811 106.6L69.3811 110.95L66.9811 111.55L63.9811 121.3L49.5811 116.8L52.8811 106L36.6811 34.45L51.3811 31.15L61.8811 77.5L74.9311 35.5L89.1811 39.85ZM97.4311 35.65H112.431V116.65H97.4311V35.65ZM157.731 87.7V88V89.5C157.731 90.1 157.681 90.55 157.581 90.85C157.281 92.95 156.631 94.75 155.631 96.25C155.431 96.45 155.281 96.65 155.181 96.85C155.081 96.95 155.031 97.05 155.031 97.15L154.881 97.3C154.781 97.5 154.631 97.7 154.431 97.9C154.231 98.1 154.131 98.25 154.131 98.35C153.431 99.05 152.881 99.55 152.481 99.85C151.981 100.35 151.481 100.8 150.981 101.2C150.481 101.6 149.981 102 149.481 102.4C149.081 102.7 148.581 103.05 147.981 103.45C147.681 103.65 147.381 103.8 147.081 103.9C146.881 104 146.631 104.15 146.331 104.35C144.431 105.45 142.331 106.4 140.031 107.2C138.031 107.9 135.831 108.5 133.431 109C132.331 109.2 131.181 109.4 129.981 109.6C128.881 109.7 127.681 109.75 126.381 109.75V94.75C127.681 94.75 129.081 94.6 130.581 94.3C131.381 94.1 132.131 93.9 132.831 93.7C133.531 93.5 134.281 93.3 135.081 93.1L139.131 91.3C139.331 91.1 139.631 90.9 140.031 90.7C140.431 90.5 140.681 90.3 140.781 90.1C141.081 89.9 141.331 89.75 141.531 89.65C141.731 89.45 141.931 89.25 142.131 89.05C142.331 88.95 142.431 88.9 142.431 88.9C142.431 88.8 142.481 88.7 142.581 88.6C142.681 88.6 142.731 88.55 142.731 88.45V88.3V88.15V87.85C142.631 87.65 142.581 87.45 142.581 87.25C142.581 86.95 142.531 86.7 142.431 86.5C142.331 86.3 142.231 86.15 142.131 86.05C142.131 85.85 142.031 85.65 141.831 85.45C141.631 84.95 141.331 84.55 140.931 84.25C140.231 83.45 139.231 82.55 137.931 81.55C137.231 81.05 136.481 80.55 135.681 80.05C134.981 79.55 134.231 79.05 133.431 78.55L130.731 76.75C130.231 76.45 129.781 76.15 129.381 75.85C128.981 75.45 128.531 75.05 128.031 74.65C127.531 74.15 127.031 73.7 126.531 73.3C126.131 72.8 125.681 72.25 125.181 71.65C124.681 71.15 124.231 70.6 123.831 70C123.431 69.4 123.031 68.7 122.631 67.9C121.831 66.2 121.281 64.65 120.981 63.25V62.65C120.881 62.55 120.831 62.35 120.831 62.05V61.45L120.681 61V59.8V59.2V58.45C120.881 57.65 121.031 56.75 121.131 55.75C121.331 54.75 121.631 53.9 122.031 53.2C122.231 52.7 122.431 52.25 122.631 51.85C122.931 51.45 123.181 51.05 123.381 50.65C123.681 50.25 123.981 49.9 124.281 49.6C124.581 49.3 124.881 49 125.181 48.7C126.481 47.4 127.681 46.4 128.781 45.7C129.081 45.5 129.381 45.35 129.681 45.25C130.081 45.05 130.431 44.85 130.731 44.65C131.031 44.45 131.331 44.35 131.631 44.35C131.931 44.25 132.231 44.1 132.531 43.9C134.731 43.1 137.031 42.45 139.431 41.95C140.031 41.85 140.631 41.8 141.231 41.8C141.831 41.7 142.381 41.6 142.881 41.5C143.681 41.5 144.231 41.45 144.531 41.35H145.431H145.881H146.181H146.481V56.35H146.031H145.431C145.231 56.35 145.031 56.4 144.831 56.5C144.731 56.5 144.581 56.5 144.381 56.5C143.681 56.5 142.931 56.6 142.131 56.8C141.331 57 140.581 57.2 139.881 57.4C139.181 57.5 138.581 57.65 138.081 57.85C137.681 58.05 137.431 58.15 137.331 58.15C137.131 58.25 136.981 58.35 136.881 58.45C136.881 58.45 136.781 58.5 136.581 58.6C136.381 58.7 136.131 58.9 135.831 59.2C135.731 59.3 135.681 59.35 135.681 59.35V59.5V59.65V59.95V60.1V60.25V60.4C135.781 60.6 135.831 60.75 135.831 60.85C135.831 60.85 135.881 60.95 135.981 61.15C136.181 61.55 136.381 61.85 136.581 62.05L137.781 63.25C138.081 63.45 138.331 63.7 138.531 64C138.831 64.2 139.181 64.4 139.581 64.6C139.881 64.8 140.181 65.05 140.481 65.35C140.881 65.55 141.281 65.75 141.681 65.95C142.481 66.45 143.281 67 144.081 67.6C144.881 68.1 145.731 68.7 146.631 69.4C147.131 69.7 147.581 70.05 147.981 70.45C148.381 70.75 148.831 71.1 149.331 71.5C150.231 72.2 151.181 73.1 152.181 74.2C152.681 74.7 153.081 75.25 153.381 75.85C153.781 76.35 154.231 76.9 154.731 77.5C155.531 78.8 156.131 80.15 156.531 81.55C157.031 82.75 157.381 84.2 157.581 85.9C157.581 86.1 157.581 86.3 157.581 86.5C157.681 86.6 157.731 86.75 157.731 86.95V87.4V87.7ZM166.05 35.65H181.05V116.65H166.05V35.65Z" fill="#FE7201"/>
<path d="M87.6997 32.85L66.9997 99.6L67.8997 103.95L65.4997 104.55L62.4997 114.3L48.0997 109.8L51.3997 99L35.1997 27.45L49.8997 24.15L60.3997 70.5L73.4497 28.5L87.6997 32.85ZM95.9497 28.65H110.95V109.65H95.9497V28.65ZM156.25 80.7V81V82.5C156.25 83.1 156.2 83.55 156.1 83.85C155.8 85.95 155.15 87.75 154.15 89.25C153.95 89.45 153.8 89.65 153.7 89.85C153.6 89.95 153.55 90.05 153.55 90.15L153.4 90.3C153.3 90.5 153.15 90.7 152.95 90.9C152.75 91.1 152.65 91.25 152.65 91.35C151.95 92.05 151.4 92.55 151 92.85C150.5 93.35 150 93.8 149.5 94.2C149 94.6 148.5 95 148 95.4C147.6 95.7 147.1 96.05 146.5 96.45C146.2 96.65 145.9 96.8 145.6 96.9C145.4 97 145.15 97.15 144.85 97.35C142.95 98.45 140.85 99.4 138.55 100.2C136.55 100.9 134.35 101.5 131.95 102C130.85 102.2 129.7 102.4 128.5 102.6C127.4 102.7 126.2 102.75 124.9 102.75V87.75C126.2 87.75 127.6 87.6 129.1 87.3C129.9 87.1 130.65 86.9 131.35 86.7C132.05 86.5 132.8 86.3 133.6 86.1L137.65 84.3C137.85 84.1 138.15 83.9 138.55 83.7C138.95 83.5 139.2 83.3 139.3 83.1C139.6 82.9 139.85 82.75 140.05 82.65C140.25 82.45 140.45 82.25 140.65 82.05C140.85 81.95 140.95 81.9 140.95 81.9C140.95 81.8 141 81.7 141.1 81.6C141.2 81.6 141.25 81.55 141.25 81.45V81.3V81.15V80.85C141.15 80.65 141.1 80.45 141.1 80.25C141.1 79.95 141.05 79.7 140.95 79.5C140.85 79.3 140.75 79.15 140.65 79.05C140.65 78.85 140.55 78.65 140.35 78.45C140.15 77.95 139.85 77.55 139.45 77.25C138.75 76.45 137.75 75.55 136.45 74.55C135.75 74.05 135 73.55 134.2 73.05C133.5 72.55 132.75 72.05 131.95 71.55L129.25 69.75C128.75 69.45 128.3 69.15 127.9 68.85C127.5 68.45 127.05 68.05 126.55 67.65C126.05 67.15 125.55 66.7 125.05 66.3C124.65 65.8 124.2 65.25 123.7 64.65C123.2 64.15 122.75 63.6 122.35 63C121.95 62.4 121.55 61.7 121.15 60.9C120.35 59.2 119.8 57.65 119.5 56.25V55.65C119.4 55.55 119.35 55.35 119.35 55.05V54.45L119.2 54V52.8V52.2V51.45C119.4 50.65 119.55 49.75 119.65 48.75C119.85 47.75 120.15 46.9 120.55 46.2C120.75 45.7 120.95 45.25 121.15 44.85C121.45 44.45 121.7 44.05 121.9 43.65C122.2 43.25 122.5 42.9 122.8 42.6C123.1 42.3 123.4 42 123.7 41.7C125 40.4 126.2 39.4 127.3 38.7C127.6 38.5 127.9 38.35 128.2 38.25C128.6 38.05 128.95 37.85 129.25 37.65C129.55 37.45 129.85 37.35 130.15 37.35C130.45 37.25 130.75 37.1 131.05 36.9C133.25 36.1 135.55 35.45 137.95 34.95C138.55 34.85 139.15 34.8 139.75 34.8C140.35 34.7 140.9 34.6 141.4 34.5C142.2 34.5 142.75 34.45 143.05 34.35H143.95H144.4H144.7H145V49.35H144.55H143.95C143.75 49.35 143.55 49.4 143.35 49.5C143.25 49.5 143.1 49.5 142.9 49.5C142.2 49.5 141.45 49.6 140.65 49.8C139.85 50 139.1 50.2 138.4 50.4C137.7 50.5 137.1 50.65 136.6 50.85C136.2 51.05 135.95 51.15 135.85 51.15C135.65 51.25 135.5 51.35 135.4 51.45C135.4 51.45 135.3 51.5 135.1 51.6C134.9 51.7 134.65 51.9 134.35 52.2C134.25 52.3 134.2 52.35 134.2 52.35V52.5V52.65V52.95V53.1V53.25V53.4C134.3 53.6 134.35 53.75 134.35 53.85C134.35 53.85 134.4 53.95 134.5 54.15C134.7 54.55 134.9 54.85 135.1 55.05L136.3 56.25C136.6 56.45 136.85 56.7 137.05 57C137.35 57.2 137.7 57.4 138.1 57.6C138.4 57.8 138.7 58.05 139 58.35C139.4 58.55 139.8 58.75 140.2 58.95C141 59.45 141.8 60 142.6 60.6C143.4 61.1 144.25 61.7 145.15 62.4C145.65 62.7 146.1 63.05 146.5 63.45C146.9 63.75 147.35 64.1 147.85 64.5C148.75 65.2 149.7 66.1 150.7 67.2C151.2 67.7 151.6 68.25 151.9 68.85C152.3 69.35 152.75 69.9 153.25 70.5C154.05 71.8 154.65 73.15 155.05 74.55C155.55 75.75 155.9 77.2 156.1 78.9C156.1 79.1 156.1 79.3 156.1 79.5C156.2 79.6 156.25 79.75 156.25 79.95V80.4V80.7ZM164.569 28.65H179.569V109.65H164.569V28.65Z" fill="#BCDB37"/>
<line x1="48.8887" y1="160.5" x2="173.333" y2="160.5" stroke="#FE7201" stroke-width="3"/>
<line x1="87.7773" y1="159.051" x2="134.444" y2="159.051" stroke="#BCDB37" stroke-width="8"/>
</svg>
